<?xml version="1.0" encoding="UTF-8" standalone="no"?>
<!DOCTYPE svg PUBLIC "-//W3C//DTD SVG 1.1//EN"
 "http://www.w3.org/Graphics/SVG/1.1/DTD/svg11.dtd">
<!-- Generated by graphviz version 2.43.0 (0)
 -->
<!-- Title: %3 Pages: 1 -->
<svg width="397pt" height="167pt"
 viewBox="0.00 0.00 396.80 166.80" xmlns="http://www.w3.org/2000/svg" xmlns:xlink="http://www.w3.org/1999/xlink">
<g id="graph0" class="graph" transform="scale(1 1) rotate(0) translate(14.4 152.4)">
<title>%3</title>
<polygon fill="#ffffff" stroke="transparent" points="-14.4,14.4 -14.4,-152.4 382.4,-152.4 382.4,14.4 -14.4,14.4"/>
<!-- 4 -->
<g id="node1" class="node">
<title>4</title>
<path fill="#7289da" stroke="#ffffff" stroke-width="1.1" d="M12,-47.5C12,-47.5 42,-47.5 42,-47.5 48,-47.5 54,-53.5 54,-59.5 54,-59.5 54,-71.5 54,-71.5 54,-77.5 48,-83.5 42,-83.5 42,-83.5 12,-83.5 12,-83.5 6,-83.5 0,-77.5 0,-71.5 0,-71.5 0,-59.5 0,-59.5 0,-53.5 6,-47.5 12,-47.5"/>
<text text-anchor="middle" x="27" y="-61.8" font-family="Times,serif" font-size="14.00" fill="#ffffff">r</text>
</g>
<!-- 3 -->
<g id="node2" class="node">
<title>3</title>
<path fill="#7289da" stroke="#ffffff" stroke-width="1.1" d="M102,-101.5C102,-101.5 132,-101.5 132,-101.5 138,-101.5 144,-107.5 144,-113.5 144,-113.5 144,-125.5 144,-125.5 144,-131.5 138,-137.5 132,-137.5 132,-137.5 102,-137.5 102,-137.5 96,-137.5 90,-131.5 90,-125.5 90,-125.5 90,-113.5 90,-113.5 90,-107.5 96,-101.5 102,-101.5"/>
<text text-anchor="middle" x="117" y="-115.8" font-family="Times,serif" font-size="14.00" fill="#ffffff">u</text>
</g>
<!-- 4&#45;&gt;3 -->
<g id="edge1" class="edge">
<title>4&#45;&gt;3</title>
<path fill="none" stroke="black" stroke-width="0.9" d="M54.4,-81.7C63.36,-87.2 73.48,-93.41 82.89,-99.18"/>
<polygon fill="black" stroke="black" stroke-width="0.9" points="81.64,-101.7 89.92,-103.5 84.56,-96.93 81.64,-101.7"/>
</g>
<!-- 2 -->
<g id="node3" class="node">
<title>2</title>
<path fill="#7289da" stroke="#ffffff" stroke-width="1.1" d="M192,-47.5C192,-47.5 242,-47.5 242,-47.5 248,-47.5 254,-53.5 254,-59.5 254,-59.5 254,-71.5 254,-71.5 254,-77.5 248,-83.5 242,-83.5 242,-83.5 192,-83.5 192,-83.5 186,-83.5 180,-77.5 180,-71.5 180,-71.5 180,-59.5 180,-59.5 180,-53.5 186,-47.5 192,-47.5"/>
<text text-anchor="middle" x="192.5" y="-61.8" font-family="Times,serif" font-size="14.00" fill="#ffffff">y</text>
<polyline fill="none" stroke="#ffffff" stroke-width="1.1" points="205,-47.5 205,-83.5 "/>
<text text-anchor="middle" x="216.5" y="-61.8" font-family="Times,serif" font-size="14.00" fill="#ffffff">t</text>
<polyline fill="none" stroke="#ffffff" stroke-width="1.1" points="228,-47.5 228,-83.5 "/>
<text text-anchor="middle" x="241" y="-61.8" font-family="Times,serif" font-size="14.00" fill="#ffffff">q</text>
</g>
<!-- 4&#45;&gt;2 -->
<g id="edge2" class="edge">
<title>4&#45;&gt;2</title>
<path fill="none" stroke="black" stroke-width="0.9" d="M54.14,-65.5C84.53,-65.5 135.19,-65.5 171.74,-65.5"/>
<polygon fill="black" stroke="black" stroke-width="0.9" points="171.78,-68.3 179.78,-65.5 171.78,-62.7 171.78,-68.3"/>
</g>
<!-- 3&#45;&gt;2 -->
<g id="edge3" class="edge">
<title>3&#45;&gt;2</title>
<path fill="none" stroke="black" stroke-width="0.9" d="M144,-105.17C153.87,-99.74 165.33,-93.42 176.18,-87.44"/>
<polygon fill="black" stroke="black" stroke-width="0.9" points="177.54,-89.89 183.19,-83.58 174.84,-84.98 177.54,-89.89"/>
</g>
<!-- 1 -->
<g id="node4" class="node">
<title>1</title>
<path fill="#7289da" stroke="#ffffff" stroke-width="1.1" d="M314,-95.5C314,-95.5 344,-95.5 344,-95.5 350,-95.5 356,-101.5 356,-107.5 356,-107.5 356,-119.5 356,-119.5 356,-125.5 350,-131.5 344,-131.5 344,-131.5 314,-131.5 314,-131.5 308,-131.5 302,-125.5 302,-119.5 302,-119.5 302,-107.5 302,-107.5 302,-101.5 308,-95.5 314,-95.5"/>
<text text-anchor="middle" x="315" y="-109.8" font-family="Times,serif" font-size="14.00" fill="#ffffff">z</text>
<polyline fill="none" stroke="#ffffff" stroke-width="1.1" points="328,-95.5 328,-131.5 "/>
<text text-anchor="middle" x="342" y="-109.8" font-family="Times,serif" font-size="14.00" fill="#ffffff">x</text>
</g>
<!-- 2&#45;&gt;1 -->
<g id="edge4" class="edge">
<title>2&#45;&gt;1</title>
<path fill="none" stroke="black" stroke-width="0.9" d="M254.02,-81.22C266.89,-86.83 281.33,-93.14 294.03,-98.67"/>
<polygon fill="black" stroke="black" stroke-width="0.9" points="293.22,-101.38 301.67,-102.01 295.46,-96.24 293.22,-101.38"/>
</g>
<!-- 0 -->
<g id="node5" class="node">
<title>0</title>
<path fill="#7289da" stroke="#ffffff" stroke-width="1.1" d="M302,-0.5C302,-0.5 356,-0.5 356,-0.5 362,-0.5 368,-6.5 368,-12.5 368,-12.5 368,-24.5 368,-24.5 368,-30.5 362,-36.5 356,-36.5 356,-36.5 302,-36.5 302,-36.5 296,-36.5 290,-30.5 290,-24.5 290,-24.5 290,-12.5 290,-12.5 290,-6.5 296,-0.5 302,-0.5"/>
<text text-anchor="middle" x="304.5" y="-14.8" font-family="Times,serif" font-size="14.00" fill="#ffffff">w</text>
<polyline fill="none" stroke="#ffffff" stroke-width="1.1" points="319,-0.5 319,-36.5 "/>
<text text-anchor="middle" x="331.5" y="-14.8" font-family="Times,serif" font-size="14.00" fill="#ffffff">v</text>
<polyline fill="none" stroke="#ffffff" stroke-width="1.1" points="344,-0.5 344,-36.5 "/>
<text text-anchor="middle" x="356" y="-14.8" font-family="Times,serif" font-size="14.00" fill="#ffffff">s</text>
</g>
<!-- 2&#45;&gt;0 -->
<g id="edge5" class="edge">
<title>2&#45;&gt;0</title>
<path fill="none" stroke="black" stroke-width="0.9" d="M254.02,-50.11C263.02,-46.27 272.79,-42.09 282.19,-38.07"/>
<polygon fill="black" stroke="black" stroke-width="0.9" points="283.37,-40.61 289.63,-34.9 281.17,-35.46 283.37,-40.61"/>
</g>
</g>
</svg>
