<?xml version="1.0" encoding="UTF-8" standalone="no"?>
<!DOCTYPE svg PUBLIC "-//W3C//DTD SVG 1.1//EN"
 "http://www.w3.org/Graphics/SVG/1.1/DTD/svg11.dtd">
<!-- Generated by graphviz version 2.43.0 (0)
 -->
<!-- Title: %3 Pages: 1 -->
<svg width="219pt" height="285pt"
 viewBox="0.00 0.00 218.80 284.80" xmlns="http://www.w3.org/2000/svg" xmlns:xlink="http://www.w3.org/1999/xlink">
<g id="graph0" class="graph" transform="scale(1 1) rotate(0) translate(14.4 270.4)">
<title>%3</title>
<polygon fill="#ffffff" stroke="transparent" points="-14.4,14.4 -14.4,-270.4 204.4,-270.4 204.4,14.4 -14.4,14.4"/>
<!-- 4 -->
<g id="node1" class="node">
<title>4</title>
<path fill="#7289da" stroke="#ffffff" stroke-width="1.1" d="M74,-219.5C74,-219.5 104,-219.5 104,-219.5 110,-219.5 116,-225.5 116,-231.5 116,-231.5 116,-243.5 116,-243.5 116,-249.5 110,-255.5 104,-255.5 104,-255.5 74,-255.5 74,-255.5 68,-255.5 62,-249.5 62,-243.5 62,-243.5 62,-231.5 62,-231.5 62,-225.5 68,-219.5 74,-219.5"/>
<text text-anchor="middle" x="89" y="-233.8" font-family="Times,serif" font-size="14.00" fill="#ffffff">r</text>
</g>
<!-- 3 -->
<g id="node2" class="node">
<title>3</title>
<path fill="#7289da" stroke="#ffffff" stroke-width="1.1" d="M17,-146.5C17,-146.5 47,-146.5 47,-146.5 53,-146.5 59,-152.5 59,-158.5 59,-158.5 59,-170.5 59,-170.5 59,-176.5 53,-182.5 47,-182.5 47,-182.5 17,-182.5 17,-182.5 11,-182.5 5,-176.5 5,-170.5 5,-170.5 5,-158.5 5,-158.5 5,-152.5 11,-146.5 17,-146.5"/>
<text text-anchor="middle" x="32" y="-160.8" font-family="Times,serif" font-size="14.00" fill="#ffffff">u</text>
</g>
<!-- 4&#45;&gt;3 -->
<g id="edge1" class="edge">
<title>4&#45;&gt;3</title>
<path fill="none" stroke="black" stroke-width="0.9" d="M75.2,-219.31C67.85,-210.16 58.7,-198.76 50.72,-188.82"/>
<polygon fill="black" stroke="black" stroke-width="0.9" points="52.86,-187.01 45.67,-182.53 48.5,-190.52 52.86,-187.01"/>
</g>
<!-- 2 -->
<g id="node3" class="node">
<title>2</title>
<path fill="#7289da" stroke="#ffffff" stroke-width="1.1" d="M64,-73.5C64,-73.5 114,-73.5 114,-73.5 120,-73.5 126,-79.5 126,-85.5 126,-85.5 126,-97.5 126,-97.5 126,-103.5 120,-109.5 114,-109.5 114,-109.5 64,-109.5 64,-109.5 58,-109.5 52,-103.5 52,-97.5 52,-97.5 52,-85.5 52,-85.5 52,-79.5 58,-73.5 64,-73.5"/>
<text text-anchor="middle" x="64.5" y="-87.8" font-family="Times,serif" font-size="14.00" fill="#ffffff">y</text>
<polyline fill="none" stroke="#ffffff" stroke-width="1.1" points="77,-73.5 77,-109.5 "/>
<text text-anchor="middle" x="88.5" y="-87.8" font-family="Times,serif" font-size="14.00" fill="#ffffff">t</text>
<polyline fill="none" stroke="#ffffff" stroke-width="1.1" points="100,-73.5 100,-109.5 "/>
<text text-anchor="middle" x="113" y="-87.8" font-family="Times,serif" font-size="14.00" fill="#ffffff">q</text>
</g>
<!-- 4&#45;&gt;2 -->
<g id="edge2" class="edge">
<title>4&#45;&gt;2</title>
<path fill="none" stroke="black" stroke-width="0.9" d="M89,-219.42C89,-194.19 89,-146.83 89,-117.64"/>
<polygon fill="black" stroke="black" stroke-width="0.9" points="91.8,-117.56 89,-109.56 86.2,-117.56 91.8,-117.56"/>
</g>
<!-- 3&#45;&gt;2 -->
<g id="edge3" class="edge">
<title>3&#45;&gt;2</title>
<path fill="none" stroke="black" stroke-width="0.9" d="M45.8,-146.31C53.15,-137.16 62.3,-125.76 70.28,-115.82"/>
<polygon fill="black" stroke="black" stroke-width="0.9" points="72.5,-117.52 75.33,-109.53 68.14,-114.01 72.5,-117.52"/>
</g>
<!-- 1 -->
<g id="node4" class="node">
<title>1</title>
<path fill="#7289da" stroke="#ffffff" stroke-width="1.1" d="M12,-0.5C12,-0.5 42,-0.5 42,-0.5 48,-0.5 54,-6.5 54,-12.5 54,-12.5 54,-24.5 54,-24.5 54,-30.5 48,-36.5 42,-36.5 42,-36.5 12,-36.5 12,-36.5 6,-36.5 0,-30.5 0,-24.5 0,-24.5 0,-12.5 0,-12.5 0,-6.5 6,-0.5 12,-0.5"/>
<text text-anchor="middle" x="13" y="-14.8" font-family="Times,serif" font-size="14.00" fill="#ffffff">z</text>
<polyline fill="none" stroke="#ffffff" stroke-width="1.1" points="26,-0.5 26,-36.5 "/>
<text text-anchor="middle" x="40" y="-14.8" font-family="Times,serif" font-size="14.00" fill="#ffffff">x</text>
</g>
<!-- 2&#45;&gt;1 -->
<g id="edge4" class="edge">
<title>2&#45;&gt;1</title>
<path fill="none" stroke="black" stroke-width="0.9" d="M73.99,-73.31C66,-64.16 56.04,-52.76 47.36,-42.82"/>
<polygon fill="black" stroke="black" stroke-width="0.9" points="49.24,-40.71 41.87,-36.53 45.02,-44.4 49.24,-40.71"/>
</g>
<!-- 0 -->
<g id="node5" class="node">
<title>0</title>
<path fill="#7289da" stroke="#ffffff" stroke-width="1.1" d="M124,-0.5C124,-0.5 178,-0.5 178,-0.5 184,-0.5 190,-6.5 190,-12.5 190,-12.5 190,-24.5 190,-24.5 190,-30.5 184,-36.5 178,-36.5 178,-36.5 124,-36.5 124,-36.5 118,-36.5 112,-30.5 112,-24.5 112,-24.5 112,-12.5 112,-12.5 112,-6.5 118,-0.5 124,-0.5"/>
<text text-anchor="middle" x="126.5" y="-14.8" font-family="Times,serif" font-size="14.00" fill="#ffffff">w</text>
<polyline fill="none" stroke="#ffffff" stroke-width="1.1" points="141,-0.5 141,-36.5 "/>
<text text-anchor="middle" x="153.5" y="-14.8" font-family="Times,serif" font-size="14.00" fill="#ffffff">v</text>
<polyline fill="none" stroke="#ffffff" stroke-width="1.1" points="166,-0.5 166,-36.5 "/>
<text text-anchor="middle" x="178" y="-14.8" font-family="Times,serif" font-size="14.00" fill="#ffffff">s</text>
</g>
<!-- 2&#45;&gt;0 -->
<g id="edge5" class="edge">
<title>2&#45;&gt;0</title>
<path fill="none" stroke="black" stroke-width="0.9" d="M104.01,-73.31C112,-64.16 121.96,-52.76 130.64,-42.82"/>
<polygon fill="black" stroke="black" stroke-width="0.9" points="132.98,-44.4 136.13,-36.53 128.76,-40.71 132.98,-44.4"/>
</g>
</g>
</svg>
