<?xml version="1.0" encoding="UTF-8" standalone="no"?>
<!DOCTYPE svg PUBLIC "-//W3C//DTD SVG 1.1//EN"
 "http://www.w3.org/Graphics/SVG/1.1/DTD/svg11.dtd">
<!-- Generated by graphviz version 2.43.0 (0)
 -->
<!-- Title: %3 Pages: 1 -->
<svg width="553pt" height="342pt"
 viewBox="0.00 0.00 553.30 341.80" xmlns="http://www.w3.org/2000/svg" xmlns:xlink="http://www.w3.org/1999/xlink">
<g id="graph0" class="graph" transform="scale(1 1) rotate(0) translate(14.4 327.4)">
<title>%3</title>
<polygon fill="#ffffff" stroke="transparent" points="-14.4,14.4 -14.4,-327.4 538.9,-327.4 538.9,14.4 -14.4,14.4"/>
<!-- 1 -->
<g id="node1" class="node">
<title>1</title>
<path fill="#7289da" stroke="#000000" stroke-width="1.7" d="M12,-266.5C12,-266.5 70,-266.5 70,-266.5 76,-266.5 82,-272.5 82,-278.5 82,-278.5 82,-300.5 82,-300.5 82,-306.5 76,-312.5 70,-312.5 70,-312.5 12,-312.5 12,-312.5 6,-312.5 0,-306.5 0,-300.5 0,-300.5 0,-278.5 0,-278.5 0,-272.5 6,-266.5 12,-266.5"/>
<text text-anchor="middle" x="13" y="-285.8" font-family="Times,serif" font-size="14.00" fill="#ffffff">1</text>
<polyline fill="none" stroke="#000000" stroke-width="1.7" points="26,-266.5 26,-312.5 "/>
<text text-anchor="middle" x="54" y="-297.3" font-family="Times,serif" font-size="14.00" fill="#ffffff">d = 1</text>
<polyline fill="none" stroke="#000000" stroke-width="1.7" points="26,-289.5 82,-289.5 "/>
<text text-anchor="middle" x="54" y="-274.3" font-family="Times,serif" font-size="14.00" fill="#ffffff">f = 8</text>
</g>
<!-- 2 -->
<g id="node2" class="node">
<title>2</title>
<path fill="#7289da" stroke="#ffffff" stroke-width="1.1" d="M126,-182.5C126,-182.5 184,-182.5 184,-182.5 190,-182.5 196,-188.5 196,-194.5 196,-194.5 196,-216.5 196,-216.5 196,-222.5 190,-228.5 184,-228.5 184,-228.5 126,-228.5 126,-228.5 120,-228.5 114,-222.5 114,-216.5 114,-216.5 114,-194.5 114,-194.5 114,-188.5 120,-182.5 126,-182.5"/>
<text text-anchor="middle" x="127" y="-201.8" font-family="Times,serif" font-size="14.00" fill="#ffffff">2</text>
<polyline fill="none" stroke="#ffffff" stroke-width="1.1" points="140,-182.5 140,-228.5 "/>
<text text-anchor="middle" x="168" y="-213.3" font-family="Times,serif" font-size="14.00" fill="#ffffff">d = 2</text>
<polyline fill="none" stroke="#ffffff" stroke-width="1.1" points="140,-205.5 196,-205.5 "/>
<text text-anchor="middle" x="168" y="-190.3" font-family="Times,serif" font-size="14.00" fill="#ffffff">f = 7</text>
</g>
<!-- 1&#45;&gt;2 -->
<g id="edge1" class="edge">
<title>1&#45;&gt;2</title>
<path fill="none" stroke="black" stroke-width="3" d="M71.85,-266.31C85.41,-256.56 101.49,-244.99 115.88,-234.64"/>
<polygon fill="black" stroke="black" stroke-width="3" points="118.05,-237.39 124.13,-228.71 113.96,-231.71 118.05,-237.39"/>
</g>
<!-- 4 -->
<g id="node3" class="node">
<title>4</title>
<path fill="#7289da" stroke="#ffffff" stroke-width="1.1" d="M126,-0.5C126,-0.5 184,-0.5 184,-0.5 190,-0.5 196,-6.5 196,-12.5 196,-12.5 196,-34.5 196,-34.5 196,-40.5 190,-46.5 184,-46.5 184,-46.5 126,-46.5 126,-46.5 120,-46.5 114,-40.5 114,-34.5 114,-34.5 114,-12.5 114,-12.5 114,-6.5 120,-0.5 126,-0.5"/>
<text text-anchor="middle" x="127" y="-19.8" font-family="Times,serif" font-size="14.00" fill="#ffffff">4</text>
<polyline fill="none" stroke="#ffffff" stroke-width="1.1" points="140,-0.5 140,-46.5 "/>
<text text-anchor="middle" x="168" y="-31.3" font-family="Times,serif" font-size="14.00" fill="#ffffff">d = 4</text>
<polyline fill="none" stroke="#ffffff" stroke-width="1.1" points="140,-23.5 196,-23.5 "/>
<text text-anchor="middle" x="168" y="-8.3" font-family="Times,serif" font-size="14.00" fill="#ffffff">f = 5</text>
</g>
<!-- 1&#45;&gt;4 -->
<g id="edge2" class="edge">
<title>1&#45;&gt;4</title>
<path fill="none" stroke="black" stroke-width="1.2" d="M49.93,-266.4C58.7,-244.81 72.55,-211.05 85,-182 103.86,-138.01 126.48,-87.5 140.8,-55.8"/>
<polygon fill="black" stroke="black" stroke-width="1.2" points="144.03,-57.14 144.96,-46.59 137.65,-54.26 144.03,-57.14"/>
<text text-anchor="middle" x="104" y="-152.8" font-family="Times,serif" font-size="14.00">F</text>
</g>
<!-- 5 -->
<g id="node4" class="node">
<title>5</title>
<path fill="#7289da" stroke="#ffffff" stroke-width="1.1" d="M236,-84.5C236,-84.5 294,-84.5 294,-84.5 300,-84.5 306,-90.5 306,-96.5 306,-96.5 306,-118.5 306,-118.5 306,-124.5 300,-130.5 294,-130.5 294,-130.5 236,-130.5 236,-130.5 230,-130.5 224,-124.5 224,-118.5 224,-118.5 224,-96.5 224,-96.5 224,-90.5 230,-84.5 236,-84.5"/>
<text text-anchor="middle" x="237" y="-103.8" font-family="Times,serif" font-size="14.00" fill="#ffffff">5</text>
<polyline fill="none" stroke="#ffffff" stroke-width="1.1" points="250,-84.5 250,-130.5 "/>
<text text-anchor="middle" x="278" y="-115.3" font-family="Times,serif" font-size="14.00" fill="#ffffff">d = 3</text>
<polyline fill="none" stroke="#ffffff" stroke-width="1.1" points="250,-107.5 306,-107.5 "/>
<text text-anchor="middle" x="278" y="-92.3" font-family="Times,serif" font-size="14.00" fill="#ffffff">f = 6</text>
</g>
<!-- 2&#45;&gt;5 -->
<g id="edge3" class="edge">
<title>2&#45;&gt;5</title>
<path fill="none" stroke="black" stroke-width="3" d="M180.24,-182.48C195.5,-169.16 215.14,-152.02 231.67,-137.59"/>
<polygon fill="black" stroke="black" stroke-width="3" points="234.27,-139.97 239.5,-130.75 229.66,-134.69 234.27,-139.97"/>
</g>
<!-- 4&#45;&gt;2 -->
<g id="edge6" class="edge">
<title>4&#45;&gt;2</title>
<path fill="none" stroke="black" stroke-width="1.2" d="M155,-46.75C155,-78.3 155,-136.19 155,-172.39"/>
<polygon fill="black" stroke="black" stroke-width="1.2" points="151.5,-172.43 155,-182.43 158.5,-172.43 151.5,-172.43"/>
<text text-anchor="middle" x="160.5" y="-103.8" font-family="Times,serif" font-size="14.00">B</text>
</g>
<!-- 5&#45;&gt;4 -->
<g id="edge7" class="edge">
<title>5&#45;&gt;4</title>
<path fill="none" stroke="black" stroke-width="3" d="M235.23,-84.31C222.27,-74.65 206.92,-63.2 193.14,-52.93"/>
<polygon fill="black" stroke="black" stroke-width="3" points="194.9,-49.88 184.79,-46.71 190.72,-55.49 194.9,-49.88"/>
</g>
<!-- 3 -->
<g id="node5" class="node">
<title>3</title>
<path fill="#7289da" stroke="#000000" stroke-width="1.7" d="M344.5,-182.5C344.5,-182.5 407.5,-182.5 407.5,-182.5 413.5,-182.5 419.5,-188.5 419.5,-194.5 419.5,-194.5 419.5,-216.5 419.5,-216.5 419.5,-222.5 413.5,-228.5 407.5,-228.5 407.5,-228.5 344.5,-228.5 344.5,-228.5 338.5,-228.5 332.5,-222.5 332.5,-216.5 332.5,-216.5 332.5,-194.5 332.5,-194.5 332.5,-188.5 338.5,-182.5 344.5,-182.5"/>
<text text-anchor="middle" x="345.5" y="-201.8" font-family="Times,serif" font-size="14.00" fill="#ffffff">3</text>
<polyline fill="none" stroke="#000000" stroke-width="1.7" points="358.5,-182.5 358.5,-228.5 "/>
<text text-anchor="middle" x="389" y="-213.3" font-family="Times,serif" font-size="14.00" fill="#ffffff">d = 9</text>
<polyline fill="none" stroke="#000000" stroke-width="1.7" points="358.5,-205.5 419.5,-205.5 "/>
<text text-anchor="middle" x="389" y="-190.3" font-family="Times,serif" font-size="14.00" fill="#ffffff">f = 12</text>
</g>
<!-- 3&#45;&gt;5 -->
<g id="edge4" class="edge">
<title>3&#45;&gt;5</title>
<path fill="none" stroke="black" stroke-width="1.2" d="M350.53,-182.48C335.13,-169.16 315.32,-152.02 298.64,-137.59"/>
<polygon fill="black" stroke="black" stroke-width="1.2" points="300.58,-134.65 290.73,-130.75 296.01,-139.94 300.58,-134.65"/>
<text text-anchor="middle" x="333.5" y="-152.8" font-family="Times,serif" font-size="14.00">C</text>
</g>
<!-- 6 -->
<g id="node6" class="node">
<title>6</title>
<path fill="#7289da" stroke="#ffffff" stroke-width="1.1" d="M376.5,-84.5C376.5,-84.5 443.5,-84.5 443.5,-84.5 449.5,-84.5 455.5,-90.5 455.5,-96.5 455.5,-96.5 455.5,-118.5 455.5,-118.5 455.5,-124.5 449.5,-130.5 443.5,-130.5 443.5,-130.5 376.5,-130.5 376.5,-130.5 370.5,-130.5 364.5,-124.5 364.5,-118.5 364.5,-118.5 364.5,-96.5 364.5,-96.5 364.5,-90.5 370.5,-84.5 376.5,-84.5"/>
<text text-anchor="middle" x="377.5" y="-103.8" font-family="Times,serif" font-size="14.00" fill="#ffffff">6</text>
<polyline fill="none" stroke="#ffffff" stroke-width="1.1" points="390.5,-84.5 390.5,-130.5 "/>
<text text-anchor="middle" x="423" y="-115.3" font-family="Times,serif" font-size="14.00" fill="#ffffff">d = 10</text>
<polyline fill="none" stroke="#ffffff" stroke-width="1.1" points="390.5,-107.5 455.5,-107.5 "/>
<text text-anchor="middle" x="423" y="-92.3" font-family="Times,serif" font-size="14.00" fill="#ffffff">f = 11</text>
</g>
<!-- 3&#45;&gt;6 -->
<g id="edge5" class="edge">
<title>3&#45;&gt;6</title>
<path fill="none" stroke="black" stroke-width="3" d="M383.89,-182.23C388.31,-169.75 393.89,-153.98 398.76,-140.23"/>
<polygon fill="black" stroke="black" stroke-width="3" points="402.12,-141.24 402.16,-130.64 395.52,-138.9 402.12,-141.24"/>
</g>
<!-- 6&#45;&gt;6 -->
<g id="edge8" class="edge">
<title>6&#45;&gt;6</title>
<path fill="none" stroke="black" stroke-width="1.2" d="M455.76,-114.75C485.18,-116.64 513.5,-114.23 513.5,-107.5 513.5,-101.56 491.43,-98.98 466.01,-99.76"/>
<polygon fill="black" stroke="black" stroke-width="1.2" points="465.58,-96.28 455.76,-100.25 465.91,-103.27 465.58,-96.28"/>
<text text-anchor="middle" x="519" y="-103.8" font-family="Times,serif" font-size="14.00">B</text>
</g>
<!-- 7 -->
<g id="node7" class="node">
<title>7</title>
<path fill="#7289da" stroke="#000000" stroke-width="1.7" d="M152.5,-266.5C152.5,-266.5 219.5,-266.5 219.5,-266.5 225.5,-266.5 231.5,-272.5 231.5,-278.5 231.5,-278.5 231.5,-300.5 231.5,-300.5 231.5,-306.5 225.5,-312.5 219.5,-312.5 219.5,-312.5 152.5,-312.5 152.5,-312.5 146.5,-312.5 140.5,-306.5 140.5,-300.5 140.5,-300.5 140.5,-278.5 140.5,-278.5 140.5,-272.5 146.5,-266.5 152.5,-266.5"/>
<text text-anchor="middle" x="153.5" y="-285.8" font-family="Times,serif" font-size="14.00" fill="#ffffff">7</text>
<polyline fill="none" stroke="#000000" stroke-width="1.7" points="166.5,-266.5 166.5,-312.5 "/>
<text text-anchor="middle" x="199" y="-297.3" font-family="Times,serif" font-size="14.00" fill="#ffffff">d = 13</text>
<polyline fill="none" stroke="#000000" stroke-width="1.7" points="166.5,-289.5 231.5,-289.5 "/>
<text text-anchor="middle" x="199" y="-274.3" font-family="Times,serif" font-size="14.00" fill="#ffffff">f = 14</text>
</g>
</g>
</svg>
