<?xml version="1.0" encoding="UTF-8" standalone="no"?>
<!DOCTYPE svg PUBLIC "-//W3C//DTD SVG 1.1//EN"
 "http://www.w3.org/Graphics/SVG/1.1/DTD/svg11.dtd">
<!-- Generated by graphviz version 2.43.0 (0)
 -->
<!-- Title: %3 Pages: 1 -->
<svg width="427pt" height="285pt"
 viewBox="0.00 0.00 426.80 284.80" xmlns="http://www.w3.org/2000/svg" xmlns:xlink="http://www.w3.org/1999/xlink">
<g id="graph0" class="graph" transform="scale(1 1) rotate(0) translate(14.4 270.4)">
<title>%3</title>
<!-- 1 -->
<g id="node1" class="node">
<title>1</title>
<path fill="#7289da" stroke="#ffffff" stroke-width="1.1" d="M12,-219.5C12,-219.5 42,-219.5 42,-219.5 48,-219.5 54,-225.5 54,-231.5 54,-231.5 54,-243.5 54,-243.5 54,-249.5 48,-255.5 42,-255.5 42,-255.5 12,-255.5 12,-255.5 6,-255.5 0,-249.5 0,-243.5 0,-243.5 0,-231.5 0,-231.5 0,-225.5 6,-219.5 12,-219.5"/>
<text text-anchor="middle" x="27" y="-233.8" font-family="Times,serif" font-size="14.00" fill="#ffffff">1</text>
</g>
<!-- 2 -->
<g id="node2" class="node">
<title>2</title>
<path fill="#7289da" stroke="#ffffff" stroke-width="1.1" d="M71,-146.5C71,-146.5 101,-146.5 101,-146.5 107,-146.5 113,-152.5 113,-158.5 113,-158.5 113,-170.5 113,-170.5 113,-176.5 107,-182.5 101,-182.5 101,-182.5 71,-182.5 71,-182.5 65,-182.5 59,-176.5 59,-170.5 59,-170.5 59,-158.5 59,-158.5 59,-152.5 65,-146.5 71,-146.5"/>
<text text-anchor="middle" x="86" y="-160.8" font-family="Times,serif" font-size="14.00" fill="#ffffff">2</text>
</g>
<!-- 1&#45;&gt;2 -->
<g id="edge1" class="edge">
<title>1&#45;&gt;2</title>
<path fill="none" stroke="black" stroke-width="1.2" d="M41.28,-219.31C48.53,-210.59 57.46,-199.84 65.44,-190.25"/>
<polygon fill="black" stroke="black" stroke-width="1.2" points="68.15,-192.46 71.85,-182.53 62.77,-187.98 68.15,-192.46"/>
</g>
<!-- 4 -->
<g id="node3" class="node">
<title>4</title>
<path fill="#7289da" stroke="#ffffff" stroke-width="1.1" d="M71,-0.5C71,-0.5 101,-0.5 101,-0.5 107,-0.5 113,-6.5 113,-12.5 113,-12.5 113,-24.5 113,-24.5 113,-30.5 107,-36.5 101,-36.5 101,-36.5 71,-36.5 71,-36.5 65,-36.5 59,-30.5 59,-24.5 59,-24.5 59,-12.5 59,-12.5 59,-6.5 65,-0.5 71,-0.5"/>
<text text-anchor="middle" x="86" y="-14.8" font-family="Times,serif" font-size="14.00" fill="#ffffff">4</text>
</g>
<!-- 1&#45;&gt;4 -->
<g id="edge2" class="edge">
<title>1&#45;&gt;4</title>
<path fill="none" stroke="black" stroke-width="1.2" d="M25.64,-219.24C24.63,-200.84 24.28,-170.98 30,-146 38.36,-109.46 57.34,-70.46 70.88,-45.58"/>
<polygon fill="black" stroke="black" stroke-width="1.2" points="73.98,-47.21 75.77,-36.77 67.86,-43.81 73.98,-47.21"/>
</g>
<!-- 5 -->
<g id="node4" class="node">
<title>5</title>
<path fill="#7289da" stroke="#ffffff" stroke-width="1.1" d="M186,-73.5C186,-73.5 216,-73.5 216,-73.5 222,-73.5 228,-79.5 228,-85.5 228,-85.5 228,-97.5 228,-97.5 228,-103.5 222,-109.5 216,-109.5 216,-109.5 186,-109.5 186,-109.5 180,-109.5 174,-103.5 174,-97.5 174,-97.5 174,-85.5 174,-85.5 174,-79.5 180,-73.5 186,-73.5"/>
<text text-anchor="middle" x="201" y="-87.8" font-family="Times,serif" font-size="14.00" fill="#ffffff">5</text>
</g>
<!-- 2&#45;&gt;5 -->
<g id="edge3" class="edge">
<title>2&#45;&gt;5</title>
<path fill="none" stroke="black" stroke-width="1.2" d="M113.25,-146.67C128.72,-137.12 148.27,-125.05 164.99,-114.73"/>
<polygon fill="black" stroke="black" stroke-width="1.2" points="167.27,-117.44 173.94,-109.21 163.59,-111.48 167.27,-117.44"/>
</g>
<!-- 4&#45;&gt;2 -->
<g id="edge6" class="edge">
<title>4&#45;&gt;2</title>
<path fill="none" stroke="black" stroke-width="1.2" d="M86,-36.56C86,-61.12 86,-106.71 86,-136.05"/>
<polygon fill="black" stroke="black" stroke-width="1.2" points="82.5,-136.42 86,-146.42 89.5,-136.42 82.5,-136.42"/>
</g>
<!-- 5&#45;&gt;4 -->
<g id="edge7" class="edge">
<title>5&#45;&gt;4</title>
<path fill="none" stroke="black" stroke-width="1.2" d="M173.75,-73.67C158.28,-64.12 138.73,-52.05 122.01,-41.73"/>
<polygon fill="black" stroke="black" stroke-width="1.2" points="123.41,-38.48 113.06,-36.21 119.73,-44.44 123.41,-38.48"/>
</g>
<!-- 3 -->
<g id="node5" class="node">
<title>3</title>
<path fill="#7289da" stroke="#ffffff" stroke-width="1.1" d="M242,-146.5C242,-146.5 272,-146.5 272,-146.5 278,-146.5 284,-152.5 284,-158.5 284,-158.5 284,-170.5 284,-170.5 284,-176.5 278,-182.5 272,-182.5 272,-182.5 242,-182.5 242,-182.5 236,-182.5 230,-176.5 230,-170.5 230,-170.5 230,-158.5 230,-158.5 230,-152.5 236,-146.5 242,-146.5"/>
<text text-anchor="middle" x="257" y="-160.8" font-family="Times,serif" font-size="14.00" fill="#ffffff">3</text>
</g>
<!-- 3&#45;&gt;5 -->
<g id="edge4" class="edge">
<title>3&#45;&gt;5</title>
<path fill="none" stroke="black" stroke-width="1.2" d="M243.44,-146.31C236.63,-137.68 228.25,-127.06 220.75,-117.53"/>
<polygon fill="black" stroke="black" stroke-width="1.2" points="223.37,-115.21 214.43,-109.53 217.88,-119.55 223.37,-115.21"/>
</g>
<!-- 6 -->
<g id="node6" class="node">
<title>6</title>
<path fill="#7289da" stroke="#ffffff" stroke-width="1.1" d="M298,-73.5C298,-73.5 328,-73.5 328,-73.5 334,-73.5 340,-79.5 340,-85.5 340,-85.5 340,-97.5 340,-97.5 340,-103.5 334,-109.5 328,-109.5 328,-109.5 298,-109.5 298,-109.5 292,-109.5 286,-103.5 286,-97.5 286,-97.5 286,-85.5 286,-85.5 286,-79.5 292,-73.5 298,-73.5"/>
<text text-anchor="middle" x="313" y="-87.8" font-family="Times,serif" font-size="14.00" fill="#ffffff">6</text>
</g>
<!-- 3&#45;&gt;6 -->
<g id="edge5" class="edge">
<title>3&#45;&gt;6</title>
<path fill="none" stroke="black" stroke-width="1.2" d="M270.56,-146.31C277.37,-137.68 285.75,-127.06 293.25,-117.53"/>
<polygon fill="black" stroke="black" stroke-width="1.2" points="296.12,-119.55 299.57,-109.53 290.63,-115.21 296.12,-119.55"/>
</g>
<!-- 6&#45;&gt;6 -->
<g id="edge8" class="edge">
<title>6&#45;&gt;6</title>
<path fill="none" stroke="black" stroke-width="1.2" d="M340.42,-102.13C367.76,-108.19 398,-104.65 398,-91.5 398,-79.94 374.64,-75.81 350.42,-79.09"/>
<polygon fill="black" stroke="black" stroke-width="1.2" points="349.65,-75.67 340.42,-80.87 350.88,-82.56 349.65,-75.67"/>
</g>
<!-- 7 -->
<g id="node7" class="node">
<title>7</title>
<path fill="#7289da" stroke="#ffffff" stroke-width="1.1" d="M124,-219.5C124,-219.5 154,-219.5 154,-219.5 160,-219.5 166,-225.5 166,-231.5 166,-231.5 166,-243.5 166,-243.5 166,-249.5 160,-255.5 154,-255.5 154,-255.5 124,-255.5 124,-255.5 118,-255.5 112,-249.5 112,-243.5 112,-243.5 112,-231.5 112,-231.5 112,-225.5 118,-219.5 124,-219.5"/>
<text text-anchor="middle" x="139" y="-233.8" font-family="Times,serif" font-size="14.00" fill="#ffffff">7</text>
</g>
</g>
</svg>
