<?xml version="1.0" encoding="UTF-8" standalone="no"?>
<!DOCTYPE svg PUBLIC "-//W3C//DTD SVG 1.1//EN"
 "http://www.w3.org/Graphics/SVG/1.1/DTD/svg11.dtd">
<!-- Generated by graphviz version 2.43.0 (0)
 -->
<!-- Title: %3 Pages: 1 -->
<svg width="294pt" height="474pt"
 viewBox="0.00 0.00 293.63 473.80" xmlns="http://www.w3.org/2000/svg" xmlns:xlink="http://www.w3.org/1999/xlink">
<g id="graph0" class="graph" transform="scale(1 1) rotate(0) translate(14.4 459.4)">
<title>%3</title>
<polygon fill="#ffffff" stroke="transparent" points="-14.4,14.4 -14.4,-459.4 279.23,-459.4 279.23,14.4 -14.4,14.4"/>
<!-- undershorts -->
<g id="node1" class="node">
<title>undershorts</title>
<path fill="#7289da" stroke="#ffffff" stroke-width="1.1" d="M132.96,-204.5C132.96,-204.5 238.96,-204.5 238.96,-204.5 244.96,-204.5 250.96,-210.5 250.96,-216.5 250.96,-216.5 250.96,-228.5 250.96,-228.5 250.96,-234.5 244.96,-240.5 238.96,-240.5 238.96,-240.5 132.96,-240.5 132.96,-240.5 126.96,-240.5 120.96,-234.5 120.96,-228.5 120.96,-228.5 120.96,-216.5 120.96,-216.5 120.96,-210.5 126.96,-204.5 132.96,-204.5"/>
<text text-anchor="middle" x="172.96" y="-218.8" font-family="Times,serif" font-size="14.00" fill="#ffffff">undershorts</text>
<polyline fill="none" stroke="#ffffff" stroke-width="1.1" points="224.96,-204.5 224.96,-240.5 "/>
<text text-anchor="middle" x="237.96" y="-218.8" font-family="Times,serif" font-size="14.00" fill="#ffffff">5</text>
</g>
<!-- pants -->
<g id="node2" class="node">
<title>pants</title>
<path fill="#7289da" stroke="#ffffff" stroke-width="1.1" d="M132.96,-153.5C132.96,-153.5 190.96,-153.5 190.96,-153.5 196.96,-153.5 202.96,-159.5 202.96,-165.5 202.96,-165.5 202.96,-177.5 202.96,-177.5 202.96,-183.5 196.96,-189.5 190.96,-189.5 190.96,-189.5 132.96,-189.5 132.96,-189.5 126.96,-189.5 120.96,-183.5 120.96,-177.5 120.96,-177.5 120.96,-165.5 120.96,-165.5 120.96,-159.5 126.96,-153.5 132.96,-153.5"/>
<text text-anchor="middle" x="148.96" y="-167.8" font-family="Times,serif" font-size="14.00" fill="#ffffff">pants</text>
<polyline fill="none" stroke="#ffffff" stroke-width="1.1" points="176.96,-153.5 176.96,-189.5 "/>
<text text-anchor="middle" x="189.96" y="-167.8" font-family="Times,serif" font-size="14.00" fill="#ffffff">6</text>
</g>
<!-- undershorts&#45;&gt;pants -->
<g id="edge1" class="edge">
<title>undershorts&#45;&gt;pants</title>
<path fill="none" stroke="black" stroke-width="0.9" d="M177.57,-204.36C176.4,-201.99 175.19,-199.51 173.98,-197.04"/>
<polygon fill="black" stroke="black" stroke-width="0.9" points="176.42,-195.66 170.39,-189.71 171.4,-198.13 176.42,-195.66"/>
</g>
<!-- shoes -->
<g id="node3" class="node">
<title>shoes</title>
<path fill="#7289da" stroke="#ffffff" stroke-width="1.1" d="M177.46,-0.5C177.46,-0.5 236.46,-0.5 236.46,-0.5 242.46,-0.5 248.46,-6.5 248.46,-12.5 248.46,-12.5 248.46,-24.5 248.46,-24.5 248.46,-30.5 242.46,-36.5 236.46,-36.5 236.46,-36.5 177.46,-36.5 177.46,-36.5 171.46,-36.5 165.46,-30.5 165.46,-24.5 165.46,-24.5 165.46,-12.5 165.46,-12.5 165.46,-6.5 171.46,-0.5 177.46,-0.5"/>
<text text-anchor="middle" x="193.96" y="-14.8" font-family="Times,serif" font-size="14.00" fill="#ffffff">shoes</text>
<polyline fill="none" stroke="#ffffff" stroke-width="1.1" points="222.46,-0.5 222.46,-36.5 "/>
<text text-anchor="middle" x="235.46" y="-14.8" font-family="Times,serif" font-size="14.00" fill="#ffffff">9</text>
</g>
<!-- undershorts&#45;&gt;shoes -->
<g id="edge2" class="edge">
<title>undershorts&#45;&gt;shoes</title>
<path fill="none" stroke="black" stroke-width="0.9" d="M199.25,-204.36C202,-199.91 204.5,-194.97 205.96,-190 220.58,-140.25 215.66,-78.76 211.1,-44.89"/>
<polygon fill="black" stroke="black" stroke-width="0.9" points="213.86,-44.42 209.96,-36.89 208.32,-45.21 213.86,-44.42"/>
</g>
<!-- pants&#45;&gt;shoes -->
<g id="edge4" class="edge">
<title>pants&#45;&gt;shoes</title>
<path fill="none" stroke="black" stroke-width="0.9" d="M167.04,-153.47C174.97,-126.85 190.35,-75.24 199.53,-44.43"/>
<polygon fill="black" stroke="black" stroke-width="0.9" points="202.23,-45.16 201.84,-36.7 196.87,-43.56 202.23,-45.16"/>
</g>
<!-- belt -->
<g id="node6" class="node">
<title>belt</title>
<path fill="#7289da" stroke="#ffffff" stroke-width="1.1" d="M92.96,-102.5C92.96,-102.5 138.96,-102.5 138.96,-102.5 144.96,-102.5 150.96,-108.5 150.96,-114.5 150.96,-114.5 150.96,-126.5 150.96,-126.5 150.96,-132.5 144.96,-138.5 138.96,-138.5 138.96,-138.5 92.96,-138.5 92.96,-138.5 86.96,-138.5 80.96,-132.5 80.96,-126.5 80.96,-126.5 80.96,-114.5 80.96,-114.5 80.96,-108.5 86.96,-102.5 92.96,-102.5"/>
<text text-anchor="middle" x="102.96" y="-116.8" font-family="Times,serif" font-size="14.00" fill="#ffffff">belt</text>
<polyline fill="none" stroke="#ffffff" stroke-width="1.1" points="124.96,-102.5 124.96,-138.5 "/>
<text text-anchor="middle" x="137.96" y="-116.8" font-family="Times,serif" font-size="14.00" fill="#ffffff">7</text>
</g>
<!-- pants&#45;&gt;belt -->
<g id="edge5" class="edge">
<title>pants&#45;&gt;belt</title>
<path fill="none" stroke="black" stroke-width="0.9" d="M145.87,-153.36C143.23,-150.54 140.45,-147.58 137.69,-144.65"/>
<polygon fill="black" stroke="black" stroke-width="0.9" points="139.64,-142.63 132.12,-138.71 135.55,-146.46 139.64,-142.63"/>
</g>
<!-- socks -->
<g id="node4" class="node">
<title>socks</title>
<path fill="#7289da" stroke="#ffffff" stroke-width="1.1" d="M156.96,-255.5C156.96,-255.5 214.96,-255.5 214.96,-255.5 220.96,-255.5 226.96,-261.5 226.96,-267.5 226.96,-267.5 226.96,-279.5 226.96,-279.5 226.96,-285.5 220.96,-291.5 214.96,-291.5 214.96,-291.5 156.96,-291.5 156.96,-291.5 150.96,-291.5 144.96,-285.5 144.96,-279.5 144.96,-279.5 144.96,-267.5 144.96,-267.5 144.96,-261.5 150.96,-255.5 156.96,-255.5"/>
<text text-anchor="middle" x="172.96" y="-269.8" font-family="Times,serif" font-size="14.00" fill="#ffffff">socks</text>
<polyline fill="none" stroke="#ffffff" stroke-width="1.1" points="200.96,-255.5 200.96,-291.5 "/>
<text text-anchor="middle" x="213.96" y="-269.8" font-family="Times,serif" font-size="14.00" fill="#ffffff">4</text>
</g>
<!-- socks&#45;&gt;undershorts -->
<!-- socks&#45;&gt;shoes -->
<g id="edge3" class="edge">
<title>socks&#45;&gt;shoes</title>
<path fill="none" stroke="black" stroke-width="0.9" d="M227.06,-261.43C237.34,-256.74 247.32,-250.17 253.96,-241 271.94,-216.17 261.96,-203.15 261.96,-172.5 261.96,-172.5 261.96,-172.5 261.96,-119.5 261.96,-90.61 244.12,-62.19 228.76,-43.07"/>
<polygon fill="black" stroke="black" stroke-width="0.9" points="230.73,-41.07 223.46,-36.72 226.43,-44.66 230.73,-41.07"/>
</g>
<!-- watch -->
<g id="node5" class="node">
<title>watch</title>
<path fill="#7289da" stroke="#ffffff" stroke-width="1.1" d="M25.46,-306.5C25.46,-306.5 86.46,-306.5 86.46,-306.5 92.46,-306.5 98.46,-312.5 98.46,-318.5 98.46,-318.5 98.46,-330.5 98.46,-330.5 98.46,-336.5 92.46,-342.5 86.46,-342.5 86.46,-342.5 25.46,-342.5 25.46,-342.5 19.46,-342.5 13.46,-336.5 13.46,-330.5 13.46,-330.5 13.46,-318.5 13.46,-318.5 13.46,-312.5 19.46,-306.5 25.46,-306.5"/>
<text text-anchor="middle" x="42.96" y="-320.8" font-family="Times,serif" font-size="14.00" fill="#ffffff">watch</text>
<polyline fill="none" stroke="#ffffff" stroke-width="1.1" points="72.46,-306.5 72.46,-342.5 "/>
<text text-anchor="middle" x="85.46" y="-320.8" font-family="Times,serif" font-size="14.00" fill="#ffffff">3</text>
</g>
<!-- watch&#45;&gt;socks -->
<!-- jacket -->
<g id="node9" class="node">
<title>jacket</title>
<path fill="#7289da" stroke="#ffffff" stroke-width="1.1" d="M85.46,-51.5C85.46,-51.5 146.46,-51.5 146.46,-51.5 152.46,-51.5 158.46,-57.5 158.46,-63.5 158.46,-63.5 158.46,-75.5 158.46,-75.5 158.46,-81.5 152.46,-87.5 146.46,-87.5 146.46,-87.5 85.46,-87.5 85.46,-87.5 79.46,-87.5 73.46,-81.5 73.46,-75.5 73.46,-75.5 73.46,-63.5 73.46,-63.5 73.46,-57.5 79.46,-51.5 85.46,-51.5"/>
<text text-anchor="middle" x="102.96" y="-65.8" font-family="Times,serif" font-size="14.00" fill="#ffffff">jacket</text>
<polyline fill="none" stroke="#ffffff" stroke-width="1.1" points="132.46,-51.5 132.46,-87.5 "/>
<text text-anchor="middle" x="145.46" y="-65.8" font-family="Times,serif" font-size="14.00" fill="#ffffff">8</text>
</g>
<!-- belt&#45;&gt;jacket -->
<g id="edge8" class="edge">
<title>belt&#45;&gt;jacket</title>
<path fill="none" stroke="black" stroke-width="0.9" d="M115.96,-102.36C115.96,-100.29 115.96,-98.13 115.96,-95.97"/>
<polygon fill="black" stroke="black" stroke-width="0.9" points="118.76,-95.71 115.96,-87.71 113.16,-95.71 118.76,-95.71"/>
</g>
<!-- shirt -->
<g id="node7" class="node">
<title>shirt</title>
<path fill="#7289da" stroke="#ffffff" stroke-width="1.1" d="M56.96,-408.5C56.96,-408.5 108.96,-408.5 108.96,-408.5 114.96,-408.5 120.96,-414.5 120.96,-420.5 120.96,-420.5 120.96,-432.5 120.96,-432.5 120.96,-438.5 114.96,-444.5 108.96,-444.5 108.96,-444.5 56.96,-444.5 56.96,-444.5 50.96,-444.5 44.96,-438.5 44.96,-432.5 44.96,-432.5 44.96,-420.5 44.96,-420.5 44.96,-414.5 50.96,-408.5 56.96,-408.5"/>
<text text-anchor="middle" x="69.96" y="-422.8" font-family="Times,serif" font-size="14.00" fill="#ffffff">shirt</text>
<polyline fill="none" stroke="#ffffff" stroke-width="1.1" points="94.96,-408.5 94.96,-444.5 "/>
<text text-anchor="middle" x="107.96" y="-422.8" font-family="Times,serif" font-size="14.00" fill="#ffffff">1</text>
</g>
<!-- shirt&#45;&gt;belt -->
<g id="edge6" class="edge">
<title>shirt&#45;&gt;belt</title>
<path fill="none" stroke="black" stroke-width="0.9" d="M90.63,-408.18C98.61,-388.54 109.96,-355.35 109.96,-325.5 109.96,-325.5 109.96,-325.5 109.96,-221.5 109.96,-196.09 111.92,-167.1 113.59,-146.91"/>
<polygon fill="black" stroke="black" stroke-width="0.9" points="116.39,-147.03 114.29,-138.82 110.81,-146.55 116.39,-147.03"/>
</g>
<!-- tie -->
<g id="node8" class="node">
<title>tie</title>
<path fill="#7289da" stroke="#ffffff" stroke-width="1.1" d="M37.46,-357.5C37.46,-357.5 74.46,-357.5 74.46,-357.5 80.46,-357.5 86.46,-363.5 86.46,-369.5 86.46,-369.5 86.46,-381.5 86.46,-381.5 86.46,-387.5 80.46,-393.5 74.46,-393.5 74.46,-393.5 37.46,-393.5 37.46,-393.5 31.46,-393.5 25.46,-387.5 25.46,-381.5 25.46,-381.5 25.46,-369.5 25.46,-369.5 25.46,-363.5 31.46,-357.5 37.46,-357.5"/>
<text text-anchor="middle" x="42.96" y="-371.8" font-family="Times,serif" font-size="14.00" fill="#ffffff">tie</text>
<polyline fill="none" stroke="#ffffff" stroke-width="1.1" points="60.46,-357.5 60.46,-393.5 "/>
<text text-anchor="middle" x="73.46" y="-371.8" font-family="Times,serif" font-size="14.00" fill="#ffffff">2</text>
</g>
<!-- shirt&#45;&gt;tie -->
<g id="edge7" class="edge">
<title>shirt&#45;&gt;tie</title>
<path fill="none" stroke="black" stroke-width="0.9" d="M73.52,-408.36C72.21,-405.99 70.85,-403.51 69.48,-401.04"/>
<polygon fill="black" stroke="black" stroke-width="0.9" points="71.76,-399.37 65.45,-393.71 66.85,-402.07 71.76,-399.37"/>
</g>
<!-- tie&#45;&gt;watch -->
<!-- tie&#45;&gt;jacket -->
<g id="edge9" class="edge">
<title>tie&#45;&gt;jacket</title>
<path fill="none" stroke="black" stroke-width="0.9" d="M25.36,-359.02C19.36,-354.63 13.76,-349.3 9.96,-343 -5.88,-316.76 1.96,-305.15 1.96,-274.5 1.96,-274.5 1.96,-274.5 1.96,-170.5 1.96,-134.06 35.28,-107.79 65.9,-91.35"/>
<polygon fill="black" stroke="black" stroke-width="0.9" points="67.36,-93.74 73.19,-87.59 64.79,-88.77 67.36,-93.74"/>
</g>
<!-- jacket&#45;&gt;shoes -->
</g>
</svg>
