<?xml version="1.0" encoding="UTF-8" standalone="no"?>
<!DOCTYPE svg PUBLIC "-//W3C//DTD SVG 1.1//EN"
 "http://www.w3.org/Graphics/SVG/1.1/DTD/svg11.dtd">
<!-- Generated by graphviz version 2.43.0 (0)
 -->
<!-- Title: %3 Pages: 1 -->
<svg width="345pt" height="285pt"
 viewBox="0.00 0.00 344.68 284.80" xmlns="http://www.w3.org/2000/svg" xmlns:xlink="http://www.w3.org/1999/xlink">
<g id="graph0" class="graph" transform="scale(1 1) rotate(0) translate(14.4 270.4)">
<title>%3</title>
<polygon fill="#ffffff" stroke="transparent" points="-14.4,14.4 -14.4,-270.4 330.28,-270.4 330.28,14.4 -14.4,14.4"/>
<!-- undershorts -->
<g id="node1" class="node">
<title>undershorts</title>
<path fill="#7289da" stroke="#ffffff" stroke-width="1.1" d="M20.88,-219.5C20.88,-219.5 100.88,-219.5 100.88,-219.5 106.88,-219.5 112.88,-225.5 112.88,-231.5 112.88,-231.5 112.88,-243.5 112.88,-243.5 112.88,-249.5 106.88,-255.5 100.88,-255.5 100.88,-255.5 20.88,-255.5 20.88,-255.5 14.88,-255.5 8.88,-249.5 8.88,-243.5 8.88,-243.5 8.88,-231.5 8.88,-231.5 8.88,-225.5 14.88,-219.5 20.88,-219.5"/>
<text text-anchor="middle" x="60.88" y="-233.8" font-family="Times,serif" font-size="14.00" fill="#ffffff">undershorts</text>
</g>
<!-- pants -->
<g id="node2" class="node">
<title>pants</title>
<path fill="#7289da" stroke="#ffffff" stroke-width="1.1" d="M159.88,-146.5C159.88,-146.5 191.88,-146.5 191.88,-146.5 197.88,-146.5 203.88,-152.5 203.88,-158.5 203.88,-158.5 203.88,-170.5 203.88,-170.5 203.88,-176.5 197.88,-182.5 191.88,-182.5 191.88,-182.5 159.88,-182.5 159.88,-182.5 153.88,-182.5 147.88,-176.5 147.88,-170.5 147.88,-170.5 147.88,-158.5 147.88,-158.5 147.88,-152.5 153.88,-146.5 159.88,-146.5"/>
<text text-anchor="middle" x="175.88" y="-160.8" font-family="Times,serif" font-size="14.00" fill="#ffffff">pants</text>
</g>
<!-- undershorts&#45;&gt;pants -->
<g id="edge1" class="edge">
<title>undershorts&#45;&gt;pants</title>
<path fill="none" stroke="black" stroke-width="0.9" d="M88.43,-219.49C104.24,-209.73 124.25,-197.38 141.14,-186.95"/>
<polygon fill="black" stroke="black" stroke-width="0.9" points="142.83,-189.2 148.16,-182.61 139.89,-184.43 142.83,-189.2"/>
</g>
<!-- shoes -->
<g id="node3" class="node">
<title>shoes</title>
<path fill="#7289da" stroke="#ffffff" stroke-width="1.1" d="M45.38,-73.5C45.38,-73.5 78.38,-73.5 78.38,-73.5 84.38,-73.5 90.38,-79.5 90.38,-85.5 90.38,-85.5 90.38,-97.5 90.38,-97.5 90.38,-103.5 84.38,-109.5 78.38,-109.5 78.38,-109.5 45.38,-109.5 45.38,-109.5 39.38,-109.5 33.38,-103.5 33.38,-97.5 33.38,-97.5 33.38,-85.5 33.38,-85.5 33.38,-79.5 39.38,-73.5 45.38,-73.5"/>
<text text-anchor="middle" x="61.88" y="-87.8" font-family="Times,serif" font-size="14.00" fill="#ffffff">shoes</text>
</g>
<!-- undershorts&#45;&gt;shoes -->
<g id="edge2" class="edge">
<title>undershorts&#45;&gt;shoes</title>
<path fill="none" stroke="black" stroke-width="0.9" d="M35.05,-219.34C23.51,-210.09 11.12,-197.59 4.88,-183 -1.58,-167.88 -1.65,-161.09 4.88,-146 10.1,-133.94 19.52,-123.36 29.22,-114.85"/>
<polygon fill="black" stroke="black" stroke-width="0.9" points="31.22,-116.83 35.6,-109.57 27.65,-112.52 31.22,-116.83"/>
</g>
<!-- pants&#45;&gt;shoes -->
<g id="edge4" class="edge">
<title>pants&#45;&gt;shoes</title>
<path fill="none" stroke="black" stroke-width="0.9" d="M148.58,-146.49C132.9,-136.73 113.06,-124.38 96.32,-113.95"/>
<polygon fill="black" stroke="black" stroke-width="0.9" points="97.63,-111.47 89.36,-109.61 94.67,-116.22 97.63,-111.47"/>
</g>
<!-- belt -->
<g id="node6" class="node">
<title>belt</title>
<path fill="#7289da" stroke="#ffffff" stroke-width="1.1" d="M161.88,-73.5C161.88,-73.5 191.88,-73.5 191.88,-73.5 197.88,-73.5 203.88,-79.5 203.88,-85.5 203.88,-85.5 203.88,-97.5 203.88,-97.5 203.88,-103.5 197.88,-109.5 191.88,-109.5 191.88,-109.5 161.88,-109.5 161.88,-109.5 155.88,-109.5 149.88,-103.5 149.88,-97.5 149.88,-97.5 149.88,-85.5 149.88,-85.5 149.88,-79.5 155.88,-73.5 161.88,-73.5"/>
<text text-anchor="middle" x="176.88" y="-87.8" font-family="Times,serif" font-size="14.00" fill="#ffffff">belt</text>
</g>
<!-- pants&#45;&gt;belt -->
<g id="edge5" class="edge">
<title>pants&#45;&gt;belt</title>
<path fill="none" stroke="black" stroke-width="0.9" d="M176.12,-146.31C176.25,-137.68 176.4,-127.06 176.53,-117.53"/>
<polygon fill="black" stroke="black" stroke-width="0.9" points="179.33,-117.57 176.64,-109.53 173.73,-117.49 179.33,-117.57"/>
</g>
<!-- socks -->
<g id="node4" class="node">
<title>socks</title>
<path fill="#7289da" stroke="#ffffff" stroke-width="1.1" d="M45.88,-146.5C45.88,-146.5 77.88,-146.5 77.88,-146.5 83.88,-146.5 89.88,-152.5 89.88,-158.5 89.88,-158.5 89.88,-170.5 89.88,-170.5 89.88,-176.5 83.88,-182.5 77.88,-182.5 77.88,-182.5 45.88,-182.5 45.88,-182.5 39.88,-182.5 33.88,-176.5 33.88,-170.5 33.88,-170.5 33.88,-158.5 33.88,-158.5 33.88,-152.5 39.88,-146.5 45.88,-146.5"/>
<text text-anchor="middle" x="61.88" y="-160.8" font-family="Times,serif" font-size="14.00" fill="#ffffff">socks</text>
</g>
<!-- socks&#45;&gt;shoes -->
<g id="edge3" class="edge">
<title>socks&#45;&gt;shoes</title>
<path fill="none" stroke="black" stroke-width="0.9" d="M61.88,-146.31C61.88,-137.68 61.88,-127.06 61.88,-117.53"/>
<polygon fill="black" stroke="black" stroke-width="0.9" points="64.68,-117.53 61.88,-109.53 59.08,-117.53 64.68,-117.53"/>
</g>
<!-- watch -->
<g id="node5" class="node">
<title>watch</title>
<path fill="#7289da" stroke="#ffffff" stroke-width="1.1" d="M183.38,-219.5C183.38,-219.5 218.38,-219.5 218.38,-219.5 224.38,-219.5 230.38,-225.5 230.38,-231.5 230.38,-231.5 230.38,-243.5 230.38,-243.5 230.38,-249.5 224.38,-255.5 218.38,-255.5 218.38,-255.5 183.38,-255.5 183.38,-255.5 177.38,-255.5 171.38,-249.5 171.38,-243.5 171.38,-243.5 171.38,-231.5 171.38,-231.5 171.38,-225.5 177.38,-219.5 183.38,-219.5"/>
<text text-anchor="middle" x="200.88" y="-233.8" font-family="Times,serif" font-size="14.00" fill="#ffffff">watch</text>
</g>
<!-- jacket -->
<g id="node9" class="node">
<title>jacket</title>
<path fill="#7289da" stroke="#ffffff" stroke-width="1.1" d="M215.38,-0.5C215.38,-0.5 250.38,-0.5 250.38,-0.5 256.38,-0.5 262.38,-6.5 262.38,-12.5 262.38,-12.5 262.38,-24.5 262.38,-24.5 262.38,-30.5 256.38,-36.5 250.38,-36.5 250.38,-36.5 215.38,-36.5 215.38,-36.5 209.38,-36.5 203.38,-30.5 203.38,-24.5 203.38,-24.5 203.38,-12.5 203.38,-12.5 203.38,-6.5 209.38,-0.5 215.38,-0.5"/>
<text text-anchor="middle" x="232.88" y="-14.8" font-family="Times,serif" font-size="14.00" fill="#ffffff">jacket</text>
</g>
<!-- belt&#45;&gt;jacket -->
<g id="edge8" class="edge">
<title>belt&#45;&gt;jacket</title>
<path fill="none" stroke="black" stroke-width="0.9" d="M190.44,-73.31C197.66,-64.16 206.65,-52.76 214.49,-42.82"/>
<polygon fill="black" stroke="black" stroke-width="0.9" points="216.7,-44.54 219.45,-36.53 212.3,-41.08 216.7,-44.54"/>
</g>
<!-- shirt -->
<g id="node7" class="node">
<title>shirt</title>
<path fill="#7289da" stroke="#ffffff" stroke-width="1.1" d="M273.88,-146.5C273.88,-146.5 303.88,-146.5 303.88,-146.5 309.88,-146.5 315.88,-152.5 315.88,-158.5 315.88,-158.5 315.88,-170.5 315.88,-170.5 315.88,-176.5 309.88,-182.5 303.88,-182.5 303.88,-182.5 273.88,-182.5 273.88,-182.5 267.88,-182.5 261.88,-176.5 261.88,-170.5 261.88,-170.5 261.88,-158.5 261.88,-158.5 261.88,-152.5 267.88,-146.5 273.88,-146.5"/>
<text text-anchor="middle" x="288.88" y="-160.8" font-family="Times,serif" font-size="14.00" fill="#ffffff">shirt</text>
</g>
<!-- shirt&#45;&gt;belt -->
<g id="edge6" class="edge">
<title>shirt&#45;&gt;belt</title>
<path fill="none" stroke="black" stroke-width="0.9" d="M262.06,-146.49C246.65,-136.73 227.17,-124.38 210.72,-113.95"/>
<polygon fill="black" stroke="black" stroke-width="0.9" points="212.13,-111.53 203.88,-109.61 209.14,-116.26 212.13,-111.53"/>
</g>
<!-- tie -->
<g id="node8" class="node">
<title>tie</title>
<path fill="#7289da" stroke="#ffffff" stroke-width="1.1" d="M273.88,-73.5C273.88,-73.5 303.88,-73.5 303.88,-73.5 309.88,-73.5 315.88,-79.5 315.88,-85.5 315.88,-85.5 315.88,-97.5 315.88,-97.5 315.88,-103.5 309.88,-109.5 303.88,-109.5 303.88,-109.5 273.88,-109.5 273.88,-109.5 267.88,-109.5 261.88,-103.5 261.88,-97.5 261.88,-97.5 261.88,-85.5 261.88,-85.5 261.88,-79.5 267.88,-73.5 273.88,-73.5"/>
<text text-anchor="middle" x="288.88" y="-87.8" font-family="Times,serif" font-size="14.00" fill="#ffffff">tie</text>
</g>
<!-- shirt&#45;&gt;tie -->
<g id="edge7" class="edge">
<title>shirt&#45;&gt;tie</title>
<path fill="none" stroke="black" stroke-width="0.9" d="M288.88,-146.31C288.88,-137.68 288.88,-127.06 288.88,-117.53"/>
<polygon fill="black" stroke="black" stroke-width="0.9" points="291.68,-117.53 288.88,-109.53 286.08,-117.53 291.68,-117.53"/>
</g>
<!-- tie&#45;&gt;jacket -->
<g id="edge9" class="edge">
<title>tie&#45;&gt;jacket</title>
<path fill="none" stroke="black" stroke-width="0.9" d="M275.33,-73.31C268.1,-64.16 259.12,-52.76 251.27,-42.82"/>
<polygon fill="black" stroke="black" stroke-width="0.9" points="253.47,-41.08 246.31,-36.53 249.07,-44.54 253.47,-41.08"/>
</g>
</g>
</svg>
