<?xml version="1.0" encoding="UTF-8" standalone="no"?>
<!DOCTYPE svg PUBLIC "-//W3C//DTD SVG 1.1//EN"
 "http://www.w3.org/Graphics/SVG/1.1/DTD/svg11.dtd">
<!-- Generated by graphviz version 2.43.0 (0)
 -->
<!-- Title: %3 Pages: 1 -->
<svg width="379pt" height="408pt"
 viewBox="0.00 0.00 378.80 407.80" xmlns="http://www.w3.org/2000/svg" xmlns:xlink="http://www.w3.org/1999/xlink">
<g id="graph0" class="graph" transform="scale(1 1) rotate(0) translate(14.4 393.4)">
<title>%3</title>
<polygon fill="#ffffff" stroke="transparent" points="-14.4,14.4 -14.4,-393.4 364.4,-393.4 364.4,14.4 -14.4,14.4"/>
<!-- r -->
<g id="node1" class="node">
<title>r</title>
<path fill="#7289da" stroke="#ffffff" stroke-width="1.1" d="M75,-332.5C75,-332.5 107,-332.5 107,-332.5 113,-332.5 119,-338.5 119,-344.5 119,-344.5 119,-366.5 119,-366.5 119,-372.5 113,-378.5 107,-378.5 107,-378.5 75,-378.5 75,-378.5 69,-378.5 63,-372.5 63,-366.5 63,-366.5 63,-344.5 63,-344.5 63,-338.5 69,-332.5 75,-332.5"/>
<text text-anchor="middle" x="91" y="-363.3" font-family="Times,serif" font-size="14.00" fill="#ffffff">r</text>
<polyline fill="none" stroke="#ffffff" stroke-width="1.1" points="63,-355.5 119,-355.5 "/>
<text text-anchor="middle" x="91" y="-340.3" font-family="Times,serif" font-size="14.00" fill="#ffffff">d = 1</text>
</g>
<!-- s -->
<g id="node2" class="node">
<title>s</title>
<path fill="#7289da" stroke="#000000" stroke-width="1.7" d="M12,-249.5C12,-249.5 52,-249.5 52,-249.5 58,-249.5 64,-255.5 64,-261.5 64,-261.5 64,-283.5 64,-283.5 64,-289.5 58,-295.5 52,-295.5 52,-295.5 12,-295.5 12,-295.5 6,-295.5 0,-289.5 0,-283.5 0,-283.5 0,-261.5 0,-261.5 0,-255.5 6,-249.5 12,-249.5"/>
<text text-anchor="middle" x="32" y="-280.3" font-family="Times,serif" font-size="14.00" fill="#ffffff">s</text>
<polyline fill="none" stroke="#000000" stroke-width="1.7" points="0,-272.5 64,-272.5 "/>
<text text-anchor="middle" x="32" y="-257.3" font-family="Times,serif" font-size="14.00" fill="#ffffff">source</text>
</g>
<!-- r&#45;&#45;s -->
<g id="edge1" class="edge">
<title>r&#45;&#45;s</title>
<path fill="none" stroke="black" stroke-width="3" d="M74.88,-332.37C66.55,-320.94 56.42,-307.03 48.1,-295.61"/>
</g>
<!-- v -->
<g id="node3" class="node">
<title>v</title>
<path fill="#7289da" stroke="#ffffff" stroke-width="1.1" d="M134,-249.5C134,-249.5 166,-249.5 166,-249.5 172,-249.5 178,-255.5 178,-261.5 178,-261.5 178,-283.5 178,-283.5 178,-289.5 172,-295.5 166,-295.5 166,-295.5 134,-295.5 134,-295.5 128,-295.5 122,-289.5 122,-283.5 122,-283.5 122,-261.5 122,-261.5 122,-255.5 128,-249.5 134,-249.5"/>
<text text-anchor="middle" x="150" y="-280.3" font-family="Times,serif" font-size="14.00" fill="#ffffff">v</text>
<polyline fill="none" stroke="#ffffff" stroke-width="1.1" points="122,-272.5 178,-272.5 "/>
<text text-anchor="middle" x="150" y="-257.3" font-family="Times,serif" font-size="14.00" fill="#ffffff">d = 2</text>
</g>
<!-- r&#45;&#45;v -->
<g id="edge2" class="edge">
<title>r&#45;&#45;v</title>
<path fill="none" stroke="black" stroke-width="3" d="M107.12,-332.37C115.45,-320.94 125.58,-307.03 133.9,-295.61"/>
</g>
<!-- w -->
<g id="node4" class="node">
<title>w</title>
<path fill="#7289da" stroke="#ffffff" stroke-width="1.1" d="M74,-166.5C74,-166.5 106,-166.5 106,-166.5 112,-166.5 118,-172.5 118,-178.5 118,-178.5 118,-200.5 118,-200.5 118,-206.5 112,-212.5 106,-212.5 106,-212.5 74,-212.5 74,-212.5 68,-212.5 62,-206.5 62,-200.5 62,-200.5 62,-178.5 62,-178.5 62,-172.5 68,-166.5 74,-166.5"/>
<text text-anchor="middle" x="90" y="-197.3" font-family="Times,serif" font-size="14.00" fill="#ffffff">w</text>
<polyline fill="none" stroke="#ffffff" stroke-width="1.1" points="62,-189.5 118,-189.5 "/>
<text text-anchor="middle" x="90" y="-174.3" font-family="Times,serif" font-size="14.00" fill="#ffffff">d = 1</text>
</g>
<!-- s&#45;&#45;w -->
<g id="edge3" class="edge">
<title>s&#45;&#45;w</title>
<path fill="none" stroke="black" stroke-width="3" d="M47.85,-249.37C56.03,-237.94 65.99,-224.03 74.17,-212.61"/>
</g>
<!-- x -->
<g id="node7" class="node">
<title>x</title>
<path fill="#7289da" stroke="#ffffff" stroke-width="1.1" d="M190,-83.5C190,-83.5 222,-83.5 222,-83.5 228,-83.5 234,-89.5 234,-95.5 234,-95.5 234,-117.5 234,-117.5 234,-123.5 228,-129.5 222,-129.5 222,-129.5 190,-129.5 190,-129.5 184,-129.5 178,-123.5 178,-117.5 178,-117.5 178,-95.5 178,-95.5 178,-89.5 184,-83.5 190,-83.5"/>
<text text-anchor="middle" x="206" y="-114.3" font-family="Times,serif" font-size="14.00" fill="#ffffff">x</text>
<polyline fill="none" stroke="#ffffff" stroke-width="1.1" points="178,-106.5 234,-106.5 "/>
<text text-anchor="middle" x="206" y="-91.3" font-family="Times,serif" font-size="14.00" fill="#ffffff">d = 2</text>
</g>
<!-- w&#45;&#45;x -->
<g id="edge9" class="edge">
<title>w&#45;&#45;x</title>
<path fill="none" stroke="black" stroke-width="3" d="M118.08,-168.89C136.18,-156.25 159.64,-139.87 177.78,-127.21"/>
</g>
<!-- t -->
<g id="node5" class="node">
<title>t</title>
<path fill="#7289da" stroke="#ffffff" stroke-width="1.1" d="M248,-249.5C248,-249.5 280,-249.5 280,-249.5 286,-249.5 292,-255.5 292,-261.5 292,-261.5 292,-283.5 292,-283.5 292,-289.5 286,-295.5 280,-295.5 280,-295.5 248,-295.5 248,-295.5 242,-295.5 236,-289.5 236,-283.5 236,-283.5 236,-261.5 236,-261.5 236,-255.5 242,-249.5 248,-249.5"/>
<text text-anchor="middle" x="264" y="-280.3" font-family="Times,serif" font-size="14.00" fill="#ffffff">t</text>
<polyline fill="none" stroke="#ffffff" stroke-width="1.1" points="236,-272.5 292,-272.5 "/>
<text text-anchor="middle" x="264" y="-257.3" font-family="Times,serif" font-size="14.00" fill="#ffffff">d = 2</text>
</g>
<!-- t&#45;&#45;w -->
<g id="edge5" class="edge">
<title>t&#45;&#45;w</title>
<path fill="none" stroke="black" stroke-width="3" d="M235.66,-258.31C203.2,-243.2 150.37,-218.6 118.04,-203.55"/>
</g>
<!-- u -->
<g id="node6" class="node">
<title>u</title>
<path fill="#7289da" stroke="#ffffff" stroke-width="1.1" d="M306,-166.5C306,-166.5 338,-166.5 338,-166.5 344,-166.5 350,-172.5 350,-178.5 350,-178.5 350,-200.5 350,-200.5 350,-206.5 344,-212.5 338,-212.5 338,-212.5 306,-212.5 306,-212.5 300,-212.5 294,-206.5 294,-200.5 294,-200.5 294,-178.5 294,-178.5 294,-172.5 300,-166.5 306,-166.5"/>
<text text-anchor="middle" x="322" y="-197.3" font-family="Times,serif" font-size="14.00" fill="#ffffff">u</text>
<polyline fill="none" stroke="#ffffff" stroke-width="1.1" points="294,-189.5 350,-189.5 "/>
<text text-anchor="middle" x="322" y="-174.3" font-family="Times,serif" font-size="14.00" fill="#ffffff">d = 3</text>
</g>
<!-- t&#45;&#45;u -->
<g id="edge4" class="edge">
<title>t&#45;&#45;u</title>
<path fill="none" stroke="black" stroke-width="3" d="M279.85,-249.37C288.03,-237.94 297.99,-224.03 306.17,-212.61"/>
</g>
<!-- t&#45;&#45;x -->
<g id="edge6" class="edge">
<title>t&#45;&#45;x</title>
<path fill="none" stroke="black" stroke-width="1.2" d="M256.18,-249.38C245.08,-217.99 224.87,-160.87 213.79,-129.53"/>
</g>
<!-- u&#45;&#45;x -->
<g id="edge7" class="edge">
<title>u&#45;&#45;x</title>
<path fill="none" stroke="black" stroke-width="1.2" d="M293.92,-168.89C275.82,-156.25 252.36,-139.87 234.22,-127.21"/>
</g>
<!-- y -->
<g id="node8" class="node">
<title>y</title>
<path fill="#7289da" stroke="#ffffff" stroke-width="1.1" d="M248,-0.5C248,-0.5 280,-0.5 280,-0.5 286,-0.5 292,-6.5 292,-12.5 292,-12.5 292,-34.5 292,-34.5 292,-40.5 286,-46.5 280,-46.5 280,-46.5 248,-46.5 248,-46.5 242,-46.5 236,-40.5 236,-34.5 236,-34.5 236,-12.5 236,-12.5 236,-6.5 242,-0.5 248,-0.5"/>
<text text-anchor="middle" x="264" y="-31.3" font-family="Times,serif" font-size="14.00" fill="#ffffff">y</text>
<polyline fill="none" stroke="#ffffff" stroke-width="1.1" points="236,-23.5 292,-23.5 "/>
<text text-anchor="middle" x="264" y="-8.3" font-family="Times,serif" font-size="14.00" fill="#ffffff">d = 3</text>
</g>
<!-- u&#45;&#45;y -->
<g id="edge8" class="edge">
<title>u&#45;&#45;y</title>
<path fill="none" stroke="black" stroke-width="1.2" d="M314.18,-166.38C303.08,-134.99 282.87,-77.87 271.79,-46.53"/>
</g>
<!-- x&#45;&#45;y -->
<g id="edge10" class="edge">
<title>x&#45;&#45;y</title>
<path fill="none" stroke="black" stroke-width="3" d="M221.85,-83.37C230.03,-71.94 239.99,-58.03 248.17,-46.61"/>
</g>
<!-- a -->
<g id="node9" class="node">
<title>a</title>
<path fill="#ed2839" stroke="#ffffff" stroke-width="1.1" d="M189,-332.5C189,-332.5 219,-332.5 219,-332.5 225,-332.5 231,-338.5 231,-344.5 231,-344.5 231,-366.5 231,-366.5 231,-372.5 225,-378.5 219,-378.5 219,-378.5 189,-378.5 189,-378.5 183,-378.5 177,-372.5 177,-366.5 177,-366.5 177,-344.5 177,-344.5 177,-338.5 183,-332.5 189,-332.5"/>
<text text-anchor="middle" x="204" y="-363.3" font-family="Times,serif" font-size="14.00" fill="#ffffff">a</text>
<polyline fill="none" stroke="#ffffff" stroke-width="1.1" points="177,-355.5 231,-355.5 "/>
<text text-anchor="middle" x="204" y="-340.3" font-family="Times,serif" font-size="14.00" fill="#ffffff">∞</text>
</g>
</g>
</svg>
