<?xml version="1.0" encoding="UTF-8" standalone="no"?>
<!DOCTYPE svg PUBLIC "-//W3C//DTD SVG 1.1//EN"
 "http://www.w3.org/Graphics/SVG/1.1/DTD/svg11.dtd">
<!-- Generated by graphviz version 2.43.0 (0)
 -->
<!-- Title: %3 Pages: 1 -->
<svg width="367pt" height="358pt"
 viewBox="0.00 0.00 366.80 357.80" xmlns="http://www.w3.org/2000/svg" xmlns:xlink="http://www.w3.org/1999/xlink">
<g id="graph0" class="graph" transform="scale(1 1) rotate(0) translate(14.4 343.4)">
<title>%3</title>
<!-- r -->
<g id="node1" class="node">
<title>r</title>
<path fill="#7289da" stroke="#ffffff" stroke-width="1.1" d="M68,-292.5C68,-292.5 98,-292.5 98,-292.5 104,-292.5 110,-298.5 110,-304.5 110,-304.5 110,-316.5 110,-316.5 110,-322.5 104,-328.5 98,-328.5 98,-328.5 68,-328.5 68,-328.5 62,-328.5 56,-322.5 56,-316.5 56,-316.5 56,-304.5 56,-304.5 56,-298.5 62,-292.5 68,-292.5"/>
<text text-anchor="middle" x="83" y="-306.8" font-family="Times,serif" font-size="14.00" fill="#ffffff">r</text>
</g>
<!-- s -->
<g id="node2" class="node">
<title>s</title>
<path fill="#7289da" stroke="#ffffff" stroke-width="1.1" d="M12,-219.5C12,-219.5 42,-219.5 42,-219.5 48,-219.5 54,-225.5 54,-231.5 54,-231.5 54,-243.5 54,-243.5 54,-249.5 48,-255.5 42,-255.5 42,-255.5 12,-255.5 12,-255.5 6,-255.5 0,-249.5 0,-243.5 0,-243.5 0,-231.5 0,-231.5 0,-225.5 6,-219.5 12,-219.5"/>
<text text-anchor="middle" x="27" y="-233.8" font-family="Times,serif" font-size="14.00" fill="#ffffff">s</text>
</g>
<!-- r&#45;&#45;s -->
<g id="edge1" class="edge">
<title>r&#45;&#45;s</title>
<path fill="none" stroke="black" stroke-width="1.2" d="M69.44,-292.31C60.64,-281.15 49.21,-266.66 40.43,-255.53"/>
</g>
<!-- v -->
<g id="node3" class="node">
<title>v</title>
<path fill="#7289da" stroke="#ffffff" stroke-width="1.1" d="M124,-219.5C124,-219.5 154,-219.5 154,-219.5 160,-219.5 166,-225.5 166,-231.5 166,-231.5 166,-243.5 166,-243.5 166,-249.5 160,-255.5 154,-255.5 154,-255.5 124,-255.5 124,-255.5 118,-255.5 112,-249.5 112,-243.5 112,-243.5 112,-231.5 112,-231.5 112,-225.5 118,-219.5 124,-219.5"/>
<text text-anchor="middle" x="139" y="-233.8" font-family="Times,serif" font-size="14.00" fill="#ffffff">v</text>
</g>
<!-- r&#45;&#45;v -->
<g id="edge2" class="edge">
<title>r&#45;&#45;v</title>
<path fill="none" stroke="black" stroke-width="1.2" d="M96.56,-292.31C105.36,-281.15 116.79,-266.66 125.57,-255.53"/>
</g>
<!-- w -->
<g id="node4" class="node">
<title>w</title>
<path fill="#7289da" stroke="#ffffff" stroke-width="1.1" d="M66,-146.5C66,-146.5 96,-146.5 96,-146.5 102,-146.5 108,-152.5 108,-158.5 108,-158.5 108,-170.5 108,-170.5 108,-176.5 102,-182.5 96,-182.5 96,-182.5 66,-182.5 66,-182.5 60,-182.5 54,-176.5 54,-170.5 54,-170.5 54,-158.5 54,-158.5 54,-152.5 60,-146.5 66,-146.5"/>
<text text-anchor="middle" x="81" y="-160.8" font-family="Times,serif" font-size="14.00" fill="#ffffff">w</text>
</g>
<!-- s&#45;&#45;w -->
<g id="edge3" class="edge">
<title>s&#45;&#45;w</title>
<path fill="none" stroke="black" stroke-width="1.2" d="M40.07,-219.31C48.56,-208.15 59.58,-193.66 68.05,-182.53"/>
</g>
<!-- x -->
<g id="node7" class="node">
<title>x</title>
<path fill="#7289da" stroke="#ffffff" stroke-width="1.1" d="M181,-73.5C181,-73.5 211,-73.5 211,-73.5 217,-73.5 223,-79.5 223,-85.5 223,-85.5 223,-97.5 223,-97.5 223,-103.5 217,-109.5 211,-109.5 211,-109.5 181,-109.5 181,-109.5 175,-109.5 169,-103.5 169,-97.5 169,-97.5 169,-85.5 169,-85.5 169,-79.5 175,-73.5 181,-73.5"/>
<text text-anchor="middle" x="196" y="-87.8" font-family="Times,serif" font-size="14.00" fill="#ffffff">x</text>
</g>
<!-- w&#45;&#45;x -->
<g id="edge9" class="edge">
<title>w&#45;&#45;x</title>
<path fill="none" stroke="black" stroke-width="1.2" d="M108.25,-146.67C126.59,-135.36 150.65,-120.5 168.94,-109.21"/>
</g>
<!-- t -->
<g id="node5" class="node">
<title>t</title>
<path fill="#7289da" stroke="#ffffff" stroke-width="1.1" d="M236,-219.5C236,-219.5 266,-219.5 266,-219.5 272,-219.5 278,-225.5 278,-231.5 278,-231.5 278,-243.5 278,-243.5 278,-249.5 272,-255.5 266,-255.5 266,-255.5 236,-255.5 236,-255.5 230,-255.5 224,-249.5 224,-243.5 224,-243.5 224,-231.5 224,-231.5 224,-225.5 230,-219.5 236,-219.5"/>
<text text-anchor="middle" x="251" y="-233.8" font-family="Times,serif" font-size="14.00" fill="#ffffff">t</text>
</g>
<!-- t&#45;&#45;w -->
<g id="edge5" class="edge">
<title>t&#45;&#45;w</title>
<path fill="none" stroke="black" stroke-width="1.2" d="M223.69,-225.09C191.96,-211.84 139.94,-190.12 108.25,-176.88"/>
</g>
<!-- u -->
<g id="node6" class="node">
<title>u</title>
<path fill="#7289da" stroke="#ffffff" stroke-width="1.1" d="M296,-146.5C296,-146.5 326,-146.5 326,-146.5 332,-146.5 338,-152.5 338,-158.5 338,-158.5 338,-170.5 338,-170.5 338,-176.5 332,-182.5 326,-182.5 326,-182.5 296,-182.5 296,-182.5 290,-182.5 284,-176.5 284,-170.5 284,-170.5 284,-158.5 284,-158.5 284,-152.5 290,-146.5 296,-146.5"/>
<text text-anchor="middle" x="311" y="-160.8" font-family="Times,serif" font-size="14.00" fill="#ffffff">u</text>
</g>
<!-- t&#45;&#45;u -->
<g id="edge4" class="edge">
<title>t&#45;&#45;u</title>
<path fill="none" stroke="black" stroke-width="1.2" d="M265.52,-219.31C274.96,-208.15 287.2,-193.66 296.61,-182.53"/>
</g>
<!-- t&#45;&#45;x -->
<g id="edge6" class="edge">
<title>t&#45;&#45;x</title>
<path fill="none" stroke="black" stroke-width="1.2" d="M244.47,-219.42C233.89,-191.7 213.1,-137.26 202.52,-109.56"/>
</g>
<!-- u&#45;&#45;x -->
<g id="edge7" class="edge">
<title>u&#45;&#45;x</title>
<path fill="none" stroke="black" stroke-width="1.2" d="M283.75,-146.67C265.41,-135.36 241.35,-120.5 223.06,-109.21"/>
</g>
<!-- y -->
<g id="node8" class="node">
<title>y</title>
<path fill="#7289da" stroke="#ffffff" stroke-width="1.1" d="M238,-0.5C238,-0.5 268,-0.5 268,-0.5 274,-0.5 280,-6.5 280,-12.5 280,-12.5 280,-24.5 280,-24.5 280,-30.5 274,-36.5 268,-36.5 268,-36.5 238,-36.5 238,-36.5 232,-36.5 226,-30.5 226,-24.5 226,-24.5 226,-12.5 226,-12.5 226,-6.5 232,-0.5 238,-0.5"/>
<text text-anchor="middle" x="253" y="-14.8" font-family="Times,serif" font-size="14.00" fill="#ffffff">y</text>
</g>
<!-- u&#45;&#45;y -->
<g id="edge8" class="edge">
<title>u&#45;&#45;y</title>
<path fill="none" stroke="black" stroke-width="1.2" d="M304.12,-146.42C292.96,-118.7 271.03,-64.26 259.87,-36.56"/>
</g>
<!-- x&#45;&#45;y -->
<g id="edge10" class="edge">
<title>x&#45;&#45;y</title>
<path fill="none" stroke="black" stroke-width="1.2" d="M209.8,-73.31C218.76,-62.15 230.39,-47.66 239.33,-36.53"/>
</g>
<!-- a -->
<g id="node9" class="node">
<title>a</title>
<path fill="#7289da" stroke="#ffffff" stroke-width="1.1" d="M180,-292.5C180,-292.5 210,-292.5 210,-292.5 216,-292.5 222,-298.5 222,-304.5 222,-304.5 222,-316.5 222,-316.5 222,-322.5 216,-328.5 210,-328.5 210,-328.5 180,-328.5 180,-328.5 174,-328.5 168,-322.5 168,-316.5 168,-316.5 168,-304.5 168,-304.5 168,-298.5 174,-292.5 180,-292.5"/>
<text text-anchor="middle" x="195" y="-306.8" font-family="Times,serif" font-size="14.00" fill="#ffffff">a</text>
</g>
</g>
</svg>
