<?xml version="1.0" encoding="UTF-8" standalone="no"?>
<!DOCTYPE svg PUBLIC "-//W3C//DTD SVG 1.1//EN"
 "http://www.w3.org/Graphics/SVG/1.1/DTD/svg11.dtd">
<!-- Generated by graphviz version 2.43.0 (0)
 -->
<!-- Title: %3 Pages: 1 -->
<svg width="662pt" height="242pt"
 viewBox="0.00 0.00 661.80 241.80" xmlns="http://www.w3.org/2000/svg" xmlns:xlink="http://www.w3.org/1999/xlink">
<g id="graph0" class="graph" transform="scale(1 1) rotate(0) translate(14.4 227.4)">
<title>%3</title>
<polygon fill="#ffffff" stroke="transparent" points="-14.4,14.4 -14.4,-227.4 647.4,-227.4 647.4,14.4 -14.4,14.4"/>
<!-- a -->
<g id="node1" class="node">
<title>a</title>
<path fill="#7289da" stroke="#ffffff" stroke-width="1.1" d="M70,-166.5C70,-166.5 103,-166.5 103,-166.5 109,-166.5 115,-172.5 115,-178.5 115,-178.5 115,-200.5 115,-200.5 115,-206.5 109,-212.5 103,-212.5 103,-212.5 70,-212.5 70,-212.5 64,-212.5 58,-206.5 58,-200.5 58,-200.5 58,-178.5 58,-178.5 58,-172.5 64,-166.5 70,-166.5"/>
<text text-anchor="middle" x="86.5" y="-197.3" font-family="Times,serif" font-size="14.00" fill="#ffffff">a</text>
<polyline fill="none" stroke="#ffffff" stroke-width="1.1" points="58,-189.5 115,-189.5 "/>
<text text-anchor="middle" x="86.5" y="-174.3" font-family="Times,serif" font-size="14.00" fill="#ffffff">cc #3</text>
</g>
<!-- b -->
<g id="node2" class="node">
<title>b</title>
<path fill="#7289da" stroke="#ffffff" stroke-width="1.1" d="M128,-83.5C128,-83.5 161,-83.5 161,-83.5 167,-83.5 173,-89.5 173,-95.5 173,-95.5 173,-117.5 173,-117.5 173,-123.5 167,-129.5 161,-129.5 161,-129.5 128,-129.5 128,-129.5 122,-129.5 116,-123.5 116,-117.5 116,-117.5 116,-95.5 116,-95.5 116,-89.5 122,-83.5 128,-83.5"/>
<text text-anchor="middle" x="144.5" y="-114.3" font-family="Times,serif" font-size="14.00" fill="#ffffff">b</text>
<polyline fill="none" stroke="#ffffff" stroke-width="1.1" points="116,-106.5 173,-106.5 "/>
<text text-anchor="middle" x="144.5" y="-91.3" font-family="Times,serif" font-size="14.00" fill="#ffffff">cc #3</text>
</g>
<!-- a&#45;&#45;b -->
<g id="edge1" class="edge">
<title>a&#45;&#45;b</title>
<path fill="none" stroke="black" stroke-width="2" d="M102.35,-166.37C110.53,-154.94 120.49,-141.03 128.67,-129.61"/>
</g>
<!-- c -->
<g id="node3" class="node">
<title>c</title>
<path fill="#7289da" stroke="#ffffff" stroke-width="1.1" d="M12,-0.5C12,-0.5 45,-0.5 45,-0.5 51,-0.5 57,-6.5 57,-12.5 57,-12.5 57,-34.5 57,-34.5 57,-40.5 51,-46.5 45,-46.5 45,-46.5 12,-46.5 12,-46.5 6,-46.5 0,-40.5 0,-34.5 0,-34.5 0,-12.5 0,-12.5 0,-6.5 6,-0.5 12,-0.5"/>
<text text-anchor="middle" x="28.5" y="-31.3" font-family="Times,serif" font-size="14.00" fill="#ffffff">c</text>
<polyline fill="none" stroke="#ffffff" stroke-width="1.1" points="0,-23.5 57,-23.5 "/>
<text text-anchor="middle" x="28.5" y="-8.3" font-family="Times,serif" font-size="14.00" fill="#ffffff">cc #3</text>
</g>
<!-- a&#45;&#45;c -->
<g id="edge2" class="edge">
<title>a&#45;&#45;c</title>
<path fill="none" stroke="black" stroke-width="2" d="M78.68,-166.38C67.58,-134.99 47.37,-77.87 36.29,-46.53"/>
</g>
<!-- b&#45;&#45;c -->
<g id="edge3" class="edge">
<title>b&#45;&#45;c</title>
<path fill="none" stroke="black" stroke-width="2" d="M115.83,-85.48C97.98,-73.02 75.11,-57.04 57.25,-44.57"/>
</g>
<!-- d -->
<g id="node4" class="node">
<title>d</title>
<path fill="#7289da" stroke="#ffffff" stroke-width="1.1" d="M128,-0.5C128,-0.5 161,-0.5 161,-0.5 167,-0.5 173,-6.5 173,-12.5 173,-12.5 173,-34.5 173,-34.5 173,-40.5 167,-46.5 161,-46.5 161,-46.5 128,-46.5 128,-46.5 122,-46.5 116,-40.5 116,-34.5 116,-34.5 116,-12.5 116,-12.5 116,-6.5 122,-0.5 128,-0.5"/>
<text text-anchor="middle" x="144.5" y="-31.3" font-family="Times,serif" font-size="14.00" fill="#ffffff">d</text>
<polyline fill="none" stroke="#ffffff" stroke-width="1.1" points="116,-23.5 173,-23.5 "/>
<text text-anchor="middle" x="144.5" y="-8.3" font-family="Times,serif" font-size="14.00" fill="#ffffff">cc #3</text>
</g>
<!-- b&#45;&#45;d -->
<g id="edge4" class="edge">
<title>b&#45;&#45;d</title>
<path fill="none" stroke="black" stroke-width="2" d="M144.5,-83.37C144.5,-71.94 144.5,-58.03 144.5,-46.61"/>
</g>
<!-- e -->
<g id="node5" class="node">
<title>e</title>
<path fill="#7289da" stroke="#ffffff" stroke-width="1.1" d="M300,-166.5C300,-166.5 333,-166.5 333,-166.5 339,-166.5 345,-172.5 345,-178.5 345,-178.5 345,-200.5 345,-200.5 345,-206.5 339,-212.5 333,-212.5 333,-212.5 300,-212.5 300,-212.5 294,-212.5 288,-206.5 288,-200.5 288,-200.5 288,-178.5 288,-178.5 288,-172.5 294,-166.5 300,-166.5"/>
<text text-anchor="middle" x="316.5" y="-197.3" font-family="Times,serif" font-size="14.00" fill="#ffffff">e</text>
<polyline fill="none" stroke="#ffffff" stroke-width="1.1" points="288,-189.5 345,-189.5 "/>
<text text-anchor="middle" x="316.5" y="-174.3" font-family="Times,serif" font-size="14.00" fill="#ffffff">cc #2</text>
</g>
<!-- f -->
<g id="node6" class="node">
<title>f</title>
<path fill="#7289da" stroke="#ffffff" stroke-width="1.1" d="M243,-83.5C243,-83.5 276,-83.5 276,-83.5 282,-83.5 288,-89.5 288,-95.5 288,-95.5 288,-117.5 288,-117.5 288,-123.5 282,-129.5 276,-129.5 276,-129.5 243,-129.5 243,-129.5 237,-129.5 231,-123.5 231,-117.5 231,-117.5 231,-95.5 231,-95.5 231,-89.5 237,-83.5 243,-83.5"/>
<text text-anchor="middle" x="259.5" y="-114.3" font-family="Times,serif" font-size="14.00" fill="#ffffff">f</text>
<polyline fill="none" stroke="#ffffff" stroke-width="1.1" points="231,-106.5 288,-106.5 "/>
<text text-anchor="middle" x="259.5" y="-91.3" font-family="Times,serif" font-size="14.00" fill="#ffffff">cc #2</text>
</g>
<!-- e&#45;&#45;f -->
<g id="edge5" class="edge">
<title>e&#45;&#45;f</title>
<path fill="none" stroke="black" stroke-width="2" d="M300.92,-166.37C292.88,-154.94 283.1,-141.03 275.06,-129.61"/>
</g>
<!-- g -->
<g id="node7" class="node">
<title>g</title>
<path fill="#7289da" stroke="#ffffff" stroke-width="1.1" d="M358,-83.5C358,-83.5 391,-83.5 391,-83.5 397,-83.5 403,-89.5 403,-95.5 403,-95.5 403,-117.5 403,-117.5 403,-123.5 397,-129.5 391,-129.5 391,-129.5 358,-129.5 358,-129.5 352,-129.5 346,-123.5 346,-117.5 346,-117.5 346,-95.5 346,-95.5 346,-89.5 352,-83.5 358,-83.5"/>
<text text-anchor="middle" x="374.5" y="-114.3" font-family="Times,serif" font-size="14.00" fill="#ffffff">g</text>
<polyline fill="none" stroke="#ffffff" stroke-width="1.1" points="346,-106.5 403,-106.5 "/>
<text text-anchor="middle" x="374.5" y="-91.3" font-family="Times,serif" font-size="14.00" fill="#ffffff">cc #2</text>
</g>
<!-- e&#45;&#45;g -->
<g id="edge6" class="edge">
<title>e&#45;&#45;g</title>
<path fill="none" stroke="black" stroke-width="2" d="M332.35,-166.37C340.53,-154.94 350.49,-141.03 358.67,-129.61"/>
</g>
<!-- h -->
<g id="node8" class="node">
<title>h</title>
<path fill="#7289da" stroke="#ffffff" stroke-width="1.1" d="M473,-166.5C473,-166.5 506,-166.5 506,-166.5 512,-166.5 518,-172.5 518,-178.5 518,-178.5 518,-200.5 518,-200.5 518,-206.5 512,-212.5 506,-212.5 506,-212.5 473,-212.5 473,-212.5 467,-212.5 461,-206.5 461,-200.5 461,-200.5 461,-178.5 461,-178.5 461,-172.5 467,-166.5 473,-166.5"/>
<text text-anchor="middle" x="489.5" y="-197.3" font-family="Times,serif" font-size="14.00" fill="#ffffff">h</text>
<polyline fill="none" stroke="#ffffff" stroke-width="1.1" points="461,-189.5 518,-189.5 "/>
<text text-anchor="middle" x="489.5" y="-174.3" font-family="Times,serif" font-size="14.00" fill="#ffffff">cc #0</text>
</g>
<!-- i -->
<g id="node9" class="node">
<title>i</title>
<path fill="#7289da" stroke="#ffffff" stroke-width="1.1" d="M473,-83.5C473,-83.5 506,-83.5 506,-83.5 512,-83.5 518,-89.5 518,-95.5 518,-95.5 518,-117.5 518,-117.5 518,-123.5 512,-129.5 506,-129.5 506,-129.5 473,-129.5 473,-129.5 467,-129.5 461,-123.5 461,-117.5 461,-117.5 461,-95.5 461,-95.5 461,-89.5 467,-83.5 473,-83.5"/>
<text text-anchor="middle" x="489.5" y="-114.3" font-family="Times,serif" font-size="14.00" fill="#ffffff">i</text>
<polyline fill="none" stroke="#ffffff" stroke-width="1.1" points="461,-106.5 518,-106.5 "/>
<text text-anchor="middle" x="489.5" y="-91.3" font-family="Times,serif" font-size="14.00" fill="#ffffff">cc #0</text>
</g>
<!-- h&#45;&#45;i -->
<g id="edge7" class="edge">
<title>h&#45;&#45;i</title>
<path fill="none" stroke="black" stroke-width="2" d="M489.5,-166.37C489.5,-154.94 489.5,-141.03 489.5,-129.61"/>
</g>
<!-- j -->
<g id="node10" class="node">
<title>j</title>
<path fill="#7289da" stroke="#ffffff" stroke-width="1.1" d="M588,-166.5C588,-166.5 621,-166.5 621,-166.5 627,-166.5 633,-172.5 633,-178.5 633,-178.5 633,-200.5 633,-200.5 633,-206.5 627,-212.5 621,-212.5 621,-212.5 588,-212.5 588,-212.5 582,-212.5 576,-206.5 576,-200.5 576,-200.5 576,-178.5 576,-178.5 576,-172.5 582,-166.5 588,-166.5"/>
<text text-anchor="middle" x="604.5" y="-197.3" font-family="Times,serif" font-size="14.00" fill="#ffffff">j</text>
<polyline fill="none" stroke="#ffffff" stroke-width="1.1" points="576,-189.5 633,-189.5 "/>
<text text-anchor="middle" x="604.5" y="-174.3" font-family="Times,serif" font-size="14.00" fill="#ffffff">cc #1</text>
</g>
</g>
</svg>
