<?xml version="1.0" encoding="UTF-8" standalone="no"?>
<!DOCTYPE svg PUBLIC "-//W3C//DTD SVG 1.1//EN"
 "http://www.w3.org/Graphics/SVG/1.1/DTD/svg11.dtd">
<!-- Generated by graphviz version 2.43.0 (0)
 -->
<!-- Title: %3 Pages: 1 -->
<svg width="644pt" height="212pt"
 viewBox="0.00 0.00 643.80 211.80" xmlns="http://www.w3.org/2000/svg" xmlns:xlink="http://www.w3.org/1999/xlink">
<g id="graph0" class="graph" transform="scale(1 1) rotate(0) translate(14.4 197.4)">
<title>%3</title>
<polygon fill="#ffffff" stroke="transparent" points="-14.4,14.4 -14.4,-197.4 629.4,-197.4 629.4,14.4 -14.4,14.4"/>
<!-- a -->
<g id="node1" class="node">
<title>a</title>
<path fill="#7289da" stroke="#ffffff" stroke-width="1.1" d="M67,-146.5C67,-146.5 97,-146.5 97,-146.5 103,-146.5 109,-152.5 109,-158.5 109,-158.5 109,-170.5 109,-170.5 109,-176.5 103,-182.5 97,-182.5 97,-182.5 67,-182.5 67,-182.5 61,-182.5 55,-176.5 55,-170.5 55,-170.5 55,-158.5 55,-158.5 55,-152.5 61,-146.5 67,-146.5"/>
<text text-anchor="middle" x="82" y="-160.8" font-family="Times,serif" font-size="14.00" fill="#ffffff">a</text>
</g>
<!-- b -->
<g id="node2" class="node">
<title>b</title>
<path fill="#7289da" stroke="#ffffff" stroke-width="1.1" d="M125,-73.5C125,-73.5 155,-73.5 155,-73.5 161,-73.5 167,-79.5 167,-85.5 167,-85.5 167,-97.5 167,-97.5 167,-103.5 161,-109.5 155,-109.5 155,-109.5 125,-109.5 125,-109.5 119,-109.5 113,-103.5 113,-97.5 113,-97.5 113,-85.5 113,-85.5 113,-79.5 119,-73.5 125,-73.5"/>
<text text-anchor="middle" x="140" y="-87.8" font-family="Times,serif" font-size="14.00" fill="#ffffff">b</text>
</g>
<!-- a&#45;&#45;b -->
<g id="edge1" class="edge">
<title>a&#45;&#45;b</title>
<path fill="none" stroke="black" stroke-width="0.9" d="M96.04,-146.31C105.16,-135.15 117,-120.66 126.09,-109.53"/>
</g>
<!-- c -->
<g id="node3" class="node">
<title>c</title>
<path fill="#7289da" stroke="#ffffff" stroke-width="1.1" d="M12,-0.5C12,-0.5 42,-0.5 42,-0.5 48,-0.5 54,-6.5 54,-12.5 54,-12.5 54,-24.5 54,-24.5 54,-30.5 48,-36.5 42,-36.5 42,-36.5 12,-36.5 12,-36.5 6,-36.5 0,-30.5 0,-24.5 0,-24.5 0,-12.5 0,-12.5 0,-6.5 6,-0.5 12,-0.5"/>
<text text-anchor="middle" x="27" y="-14.8" font-family="Times,serif" font-size="14.00" fill="#ffffff">c</text>
</g>
<!-- a&#45;&#45;c -->
<g id="edge2" class="edge">
<title>a&#45;&#45;c</title>
<path fill="none" stroke="black" stroke-width="0.9" d="M75.47,-146.42C64.89,-118.7 44.1,-64.26 33.52,-36.56"/>
</g>
<!-- b&#45;&#45;c -->
<g id="edge3" class="edge">
<title>b&#45;&#45;c</title>
<path fill="none" stroke="black" stroke-width="0.9" d="M112.93,-73.49C95.17,-62.33 72.03,-47.79 54.24,-36.61"/>
</g>
<!-- d -->
<g id="node4" class="node">
<title>d</title>
<path fill="#7289da" stroke="#ffffff" stroke-width="1.1" d="M125,-0.5C125,-0.5 155,-0.5 155,-0.5 161,-0.5 167,-6.5 167,-12.5 167,-12.5 167,-24.5 167,-24.5 167,-30.5 161,-36.5 155,-36.5 155,-36.5 125,-36.5 125,-36.5 119,-36.5 113,-30.5 113,-24.5 113,-24.5 113,-12.5 113,-12.5 113,-6.5 119,-0.5 125,-0.5"/>
<text text-anchor="middle" x="140" y="-14.8" font-family="Times,serif" font-size="14.00" fill="#ffffff">d</text>
</g>
<!-- b&#45;&#45;d -->
<g id="edge4" class="edge">
<title>b&#45;&#45;d</title>
<path fill="none" stroke="black" stroke-width="0.9" d="M140,-73.31C140,-62.15 140,-47.66 140,-36.53"/>
</g>
<!-- e -->
<g id="node5" class="node">
<title>e</title>
<path fill="#7289da" stroke="#ffffff" stroke-width="1.1" d="M293,-146.5C293,-146.5 323,-146.5 323,-146.5 329,-146.5 335,-152.5 335,-158.5 335,-158.5 335,-170.5 335,-170.5 335,-176.5 329,-182.5 323,-182.5 323,-182.5 293,-182.5 293,-182.5 287,-182.5 281,-176.5 281,-170.5 281,-170.5 281,-158.5 281,-158.5 281,-152.5 287,-146.5 293,-146.5"/>
<text text-anchor="middle" x="308" y="-160.8" font-family="Times,serif" font-size="14.00" fill="#ffffff">e</text>
</g>
<!-- f -->
<g id="node6" class="node">
<title>f</title>
<path fill="#7289da" stroke="#ffffff" stroke-width="1.1" d="M237,-73.5C237,-73.5 267,-73.5 267,-73.5 273,-73.5 279,-79.5 279,-85.5 279,-85.5 279,-97.5 279,-97.5 279,-103.5 273,-109.5 267,-109.5 267,-109.5 237,-109.5 237,-109.5 231,-109.5 225,-103.5 225,-97.5 225,-97.5 225,-85.5 225,-85.5 225,-79.5 231,-73.5 237,-73.5"/>
<text text-anchor="middle" x="252" y="-87.8" font-family="Times,serif" font-size="14.00" fill="#ffffff">f</text>
</g>
<!-- e&#45;&#45;f -->
<g id="edge5" class="edge">
<title>e&#45;&#45;f</title>
<path fill="none" stroke="black" stroke-width="0.9" d="M294.44,-146.31C285.64,-135.15 274.21,-120.66 265.43,-109.53"/>
</g>
<!-- g -->
<g id="node7" class="node">
<title>g</title>
<path fill="#7289da" stroke="#ffffff" stroke-width="1.1" d="M349,-73.5C349,-73.5 379,-73.5 379,-73.5 385,-73.5 391,-79.5 391,-85.5 391,-85.5 391,-97.5 391,-97.5 391,-103.5 385,-109.5 379,-109.5 379,-109.5 349,-109.5 349,-109.5 343,-109.5 337,-103.5 337,-97.5 337,-97.5 337,-85.5 337,-85.5 337,-79.5 343,-73.5 349,-73.5"/>
<text text-anchor="middle" x="364" y="-87.8" font-family="Times,serif" font-size="14.00" fill="#ffffff">g</text>
</g>
<!-- e&#45;&#45;g -->
<g id="edge6" class="edge">
<title>e&#45;&#45;g</title>
<path fill="none" stroke="black" stroke-width="0.9" d="M321.56,-146.31C330.36,-135.15 341.79,-120.66 350.57,-109.53"/>
</g>
<!-- h -->
<g id="node8" class="node">
<title>h</title>
<path fill="#7289da" stroke="#ffffff" stroke-width="1.1" d="M461,-146.5C461,-146.5 491,-146.5 491,-146.5 497,-146.5 503,-152.5 503,-158.5 503,-158.5 503,-170.5 503,-170.5 503,-176.5 497,-182.5 491,-182.5 491,-182.5 461,-182.5 461,-182.5 455,-182.5 449,-176.5 449,-170.5 449,-170.5 449,-158.5 449,-158.5 449,-152.5 455,-146.5 461,-146.5"/>
<text text-anchor="middle" x="476" y="-160.8" font-family="Times,serif" font-size="14.00" fill="#ffffff">h</text>
</g>
<!-- i -->
<g id="node9" class="node">
<title>i</title>
<path fill="#7289da" stroke="#ffffff" stroke-width="1.1" d="M461,-73.5C461,-73.5 491,-73.5 491,-73.5 497,-73.5 503,-79.5 503,-85.5 503,-85.5 503,-97.5 503,-97.5 503,-103.5 497,-109.5 491,-109.5 491,-109.5 461,-109.5 461,-109.5 455,-109.5 449,-103.5 449,-97.5 449,-97.5 449,-85.5 449,-85.5 449,-79.5 455,-73.5 461,-73.5"/>
<text text-anchor="middle" x="476" y="-87.8" font-family="Times,serif" font-size="14.00" fill="#ffffff">i</text>
</g>
<!-- h&#45;&#45;i -->
<g id="edge7" class="edge">
<title>h&#45;&#45;i</title>
<path fill="none" stroke="black" stroke-width="0.9" d="M476,-146.31C476,-135.15 476,-120.66 476,-109.53"/>
</g>
<!-- j -->
<g id="node10" class="node">
<title>j</title>
<path fill="#7289da" stroke="#ffffff" stroke-width="1.1" d="M573,-146.5C573,-146.5 603,-146.5 603,-146.5 609,-146.5 615,-152.5 615,-158.5 615,-158.5 615,-170.5 615,-170.5 615,-176.5 609,-182.5 603,-182.5 603,-182.5 573,-182.5 573,-182.5 567,-182.5 561,-176.5 561,-170.5 561,-170.5 561,-158.5 561,-158.5 561,-152.5 567,-146.5 573,-146.5"/>
<text text-anchor="middle" x="588" y="-160.8" font-family="Times,serif" font-size="14.00" fill="#ffffff">j</text>
</g>
</g>
</svg>
