<?xml version="1.0" encoding="UTF-8" standalone="no"?>
<!DOCTYPE svg PUBLIC "-//W3C//DTD SVG 1.1//EN"
 "http://www.w3.org/Graphics/SVG/1.1/DTD/svg11.dtd">
<!-- Generated by graphviz version 2.43.0 (0)
 -->
<!-- Title: %3 Pages: 1 -->
<svg width="372pt" height="578pt"
 viewBox="0.00 0.00 371.80 577.80" xmlns="http://www.w3.org/2000/svg" xmlns:xlink="http://www.w3.org/1999/xlink">
<g id="graph0" class="graph" transform="scale(1 1) rotate(0) translate(14.4 563.4)">
<title>%3</title>
<polygon fill="#ffffff" stroke="transparent" points="-14.4,14.4 -14.4,-563.4 357.4,-563.4 357.4,14.4 -14.4,14.4"/>
<!-- a -->
<g id="node1" class="node">
<title>a</title>
<path fill="#7289da" stroke="#ffffff" stroke-width="1.1" d="M281,-512.5C281,-512.5 311,-512.5 311,-512.5 317,-512.5 323,-518.5 323,-524.5 323,-524.5 323,-536.5 323,-536.5 323,-542.5 317,-548.5 311,-548.5 311,-548.5 281,-548.5 281,-548.5 275,-548.5 269,-542.5 269,-536.5 269,-536.5 269,-524.5 269,-524.5 269,-518.5 275,-512.5 281,-512.5"/>
<text text-anchor="middle" x="296" y="-526.8" font-family="Times,serif" font-size="14.00" fill="#ffffff">a</text>
</g>
<!-- b -->
<g id="node2" class="node">
<title>b</title>
<path fill="#7289da" stroke="#ffffff" stroke-width="1.1" d="M238,-448.5C238,-448.5 268,-448.5 268,-448.5 274,-448.5 280,-454.5 280,-460.5 280,-460.5 280,-472.5 280,-472.5 280,-478.5 274,-484.5 268,-484.5 268,-484.5 238,-484.5 238,-484.5 232,-484.5 226,-478.5 226,-472.5 226,-472.5 226,-460.5 226,-460.5 226,-454.5 232,-448.5 238,-448.5"/>
<text text-anchor="middle" x="253" y="-462.8" font-family="Times,serif" font-size="14.00" fill="#ffffff">b</text>
</g>
<!-- a&#45;&#45;b -->
<g id="edge1" class="edge">
<title>a&#45;&#45;b</title>
<path fill="none" stroke="black" stroke-width="0.9" d="M282.2,-512.4C280.08,-509.63 277.94,-506.76 276,-504 271.69,-497.88 267.23,-490.97 263.41,-484.82"/>
<text text-anchor="middle" x="288.5" y="-496" font-family="Times,serif" font-size="10.00"> 4.00</text>
</g>
<!-- h -->
<g id="node3" class="node">
<title>h</title>
<path fill="#7289da" stroke="#ffffff" stroke-width="1.1" d="M217,-64.5C217,-64.5 247,-64.5 247,-64.5 253,-64.5 259,-70.5 259,-76.5 259,-76.5 259,-88.5 259,-88.5 259,-94.5 253,-100.5 247,-100.5 247,-100.5 217,-100.5 217,-100.5 211,-100.5 205,-94.5 205,-88.5 205,-88.5 205,-76.5 205,-76.5 205,-70.5 211,-64.5 217,-64.5"/>
<text text-anchor="middle" x="232" y="-78.8" font-family="Times,serif" font-size="14.00" fill="#ffffff">h</text>
</g>
<!-- a&#45;&#45;h -->
<g id="edge2" class="edge">
<title>a&#45;&#45;h</title>
<path fill="none" stroke="black" stroke-width="0.9" d="M305.59,-512.43C311.51,-500.29 318,-483.38 318,-467.5 318,-467.5 318,-467.5 318,-145.5 318,-116.05 284.41,-99.19 259.21,-90.69"/>
<text text-anchor="middle" x="330.5" y="-304" font-family="Times,serif" font-size="10.00"> 8.00</text>
</g>
<!-- b&#45;&#45;h -->
<g id="edge4" class="edge">
<title>b&#45;&#45;h</title>
<path fill="none" stroke="black" stroke-width="0.9" d="M253,-448.39C253,-435.94 253,-418.68 253,-403.5 253,-403.5 253,-403.5 253,-145.5 253,-129.7 246.81,-112.78 241.15,-100.61"/>
<text text-anchor="middle" x="268.5" y="-272" font-family="Times,serif" font-size="10.00"> 11.00</text>
</g>
<!-- c -->
<g id="node4" class="node">
<title>c</title>
<path fill="#7289da" stroke="#ffffff" stroke-width="1.1" d="M51,-384.5C51,-384.5 81,-384.5 81,-384.5 87,-384.5 93,-390.5 93,-396.5 93,-396.5 93,-408.5 93,-408.5 93,-414.5 87,-420.5 81,-420.5 81,-420.5 51,-420.5 51,-420.5 45,-420.5 39,-414.5 39,-408.5 39,-408.5 39,-396.5 39,-396.5 39,-390.5 45,-384.5 51,-384.5"/>
<text text-anchor="middle" x="66" y="-398.8" font-family="Times,serif" font-size="14.00" fill="#ffffff">c</text>
</g>
<!-- b&#45;&#45;c -->
<g id="edge3" class="edge">
<title>b&#45;&#45;c</title>
<path fill="none" stroke="black" stroke-width="0.9" d="M225.81,-456.48C190.35,-444.73 128.69,-424.29 93.22,-412.53"/>
<text text-anchor="middle" x="183.5" y="-432" font-family="Times,serif" font-size="10.00"> 8.00</text>
</g>
<!-- i -->
<g id="node6" class="node">
<title>i</title>
<path fill="#7289da" stroke="#ffffff" stroke-width="1.1" d="M122,-0.5C122,-0.5 152,-0.5 152,-0.5 158,-0.5 164,-6.5 164,-12.5 164,-12.5 164,-24.5 164,-24.5 164,-30.5 158,-36.5 152,-36.5 152,-36.5 122,-36.5 122,-36.5 116,-36.5 110,-30.5 110,-24.5 110,-24.5 110,-12.5 110,-12.5 110,-6.5 116,-0.5 122,-0.5"/>
<text text-anchor="middle" x="137" y="-14.8" font-family="Times,serif" font-size="14.00" fill="#ffffff">i</text>
</g>
<!-- h&#45;&#45;i -->
<g id="edge14" class="edge">
<title>h&#45;&#45;i</title>
<path fill="none" stroke="black" stroke-width="0.9" d="M205.79,-64.39C192.5,-55.72 176.4,-45.22 163.13,-36.55"/>
<text text-anchor="middle" x="203.5" y="-48" font-family="Times,serif" font-size="10.00"> 7.00</text>
</g>
<!-- d -->
<g id="node5" class="node">
<title>d</title>
<path fill="#7289da" stroke="#ffffff" stroke-width="1.1" d="M92,-320.5C92,-320.5 122,-320.5 122,-320.5 128,-320.5 134,-326.5 134,-332.5 134,-332.5 134,-344.5 134,-344.5 134,-350.5 128,-356.5 122,-356.5 122,-356.5 92,-356.5 92,-356.5 86,-356.5 80,-350.5 80,-344.5 80,-344.5 80,-332.5 80,-332.5 80,-326.5 86,-320.5 92,-320.5"/>
<text text-anchor="middle" x="107" y="-334.8" font-family="Times,serif" font-size="14.00" fill="#ffffff">d</text>
</g>
<!-- c&#45;&#45;d -->
<g id="edge5" class="edge">
<title>c&#45;&#45;d</title>
<path fill="none" stroke="black" stroke-width="0.9" d="M77.42,-384.23C83.11,-375.63 89.96,-365.26 95.64,-356.68"/>
<text text-anchor="middle" x="101.5" y="-368" font-family="Times,serif" font-size="10.00"> 7.00</text>
</g>
<!-- c&#45;&#45;i -->
<g id="edge6" class="edge">
<title>c&#45;&#45;i</title>
<path fill="none" stroke="black" stroke-width="0.9" d="M38.77,-389.06C20.59,-378.69 0,-361.98 0,-339.5 0,-339.5 0,-339.5 0,-81.5 0,-33.72 70.01,-22.57 109.93,-20.09"/>
<text text-anchor="middle" x="12.5" y="-208" font-family="Times,serif" font-size="10.00"> 2.00</text>
</g>
<!-- f -->
<g id="node7" class="node">
<title>f</title>
<path fill="#7289da" stroke="#ffffff" stroke-width="1.1" d="M107,-192.5C107,-192.5 137,-192.5 137,-192.5 143,-192.5 149,-198.5 149,-204.5 149,-204.5 149,-216.5 149,-216.5 149,-222.5 143,-228.5 137,-228.5 137,-228.5 107,-228.5 107,-228.5 101,-228.5 95,-222.5 95,-216.5 95,-216.5 95,-204.5 95,-204.5 95,-198.5 101,-192.5 107,-192.5"/>
<text text-anchor="middle" x="122" y="-206.8" font-family="Times,serif" font-size="14.00" fill="#ffffff">f</text>
</g>
<!-- c&#45;&#45;f -->
<g id="edge7" class="edge">
<title>c&#45;&#45;f</title>
<path fill="none" stroke="black" stroke-width="0.9" d="M62,-384.32C56.32,-355.99 48.71,-298.39 69,-256 74.6,-244.3 84.91,-234.55 94.96,-227.19"/>
<text text-anchor="middle" x="69.5" y="-304" font-family="Times,serif" font-size="10.00"> 4.00</text>
</g>
<!-- d&#45;&#45;f -->
<g id="edge9" class="edge">
<title>d&#45;&#45;f</title>
<path fill="none" stroke="black" stroke-width="0.9" d="M129.48,-320.49C132.22,-317.83 134.82,-314.98 137,-312 154.27,-288.43 149.75,-277.13 152,-248 152.38,-243.13 154.05,-241.44 152,-237 150.62,-234.02 148.71,-231.26 146.5,-228.75"/>
<text text-anchor="middle" x="167.5" y="-272" font-family="Times,serif" font-size="10.00"> 14.00</text>
</g>
<!-- e -->
<g id="node8" class="node">
<title>e</title>
<path fill="#7289da" stroke="#ffffff" stroke-width="1.1" d="M92,-256.5C92,-256.5 122,-256.5 122,-256.5 128,-256.5 134,-262.5 134,-268.5 134,-268.5 134,-280.5 134,-280.5 134,-286.5 128,-292.5 122,-292.5 122,-292.5 92,-292.5 92,-292.5 86,-292.5 80,-286.5 80,-280.5 80,-280.5 80,-268.5 80,-268.5 80,-262.5 86,-256.5 92,-256.5"/>
<text text-anchor="middle" x="107" y="-270.8" font-family="Times,serif" font-size="14.00" fill="#ffffff">e</text>
</g>
<!-- d&#45;&#45;e -->
<g id="edge8" class="edge">
<title>d&#45;&#45;e</title>
<path fill="none" stroke="black" stroke-width="0.9" d="M107,-320.23C107,-311.63 107,-301.26 107,-292.68"/>
<text text-anchor="middle" x="119.5" y="-304" font-family="Times,serif" font-size="10.00"> 9.00</text>
</g>
<!-- g -->
<g id="node9" class="node">
<title>g</title>
<path fill="#7289da" stroke="#ffffff" stroke-width="1.1" d="M122,-128.5C122,-128.5 152,-128.5 152,-128.5 158,-128.5 164,-134.5 164,-140.5 164,-140.5 164,-152.5 164,-152.5 164,-158.5 158,-164.5 152,-164.5 152,-164.5 122,-164.5 122,-164.5 116,-164.5 110,-158.5 110,-152.5 110,-152.5 110,-140.5 110,-140.5 110,-134.5 116,-128.5 122,-128.5"/>
<text text-anchor="middle" x="137" y="-142.8" font-family="Times,serif" font-size="14.00" fill="#ffffff">g</text>
</g>
<!-- f&#45;&#45;g -->
<g id="edge11" class="edge">
<title>f&#45;&#45;g</title>
<path fill="none" stroke="black" stroke-width="0.9" d="M126.18,-192.23C128.26,-183.63 130.77,-173.26 132.84,-164.68"/>
<text text-anchor="middle" x="143.5" y="-176" font-family="Times,serif" font-size="10.00"> 2.00</text>
</g>
<!-- e&#45;&#45;f -->
<g id="edge10" class="edge">
<title>e&#45;&#45;f</title>
<path fill="none" stroke="black" stroke-width="0.9" d="M111.18,-256.23C113.26,-247.63 115.77,-237.26 117.84,-228.68"/>
<text text-anchor="middle" x="131.5" y="-240" font-family="Times,serif" font-size="10.00"> 10.00</text>
</g>
<!-- g&#45;&#45;h -->
<g id="edge12" class="edge">
<title>g&#45;&#45;h</title>
<path fill="none" stroke="black" stroke-width="0.9" d="M163.21,-128.39C176.5,-119.72 192.6,-109.22 205.87,-100.55"/>
<text text-anchor="middle" x="203.5" y="-112" font-family="Times,serif" font-size="10.00"> 1.00</text>
</g>
<!-- g&#45;&#45;i -->
<g id="edge13" class="edge">
<title>g&#45;&#45;i</title>
<path fill="none" stroke="black" stroke-width="0.9" d="M137,-128.24C137,-104.12 137,-60.56 137,-36.55"/>
<text text-anchor="middle" x="149.5" y="-80" font-family="Times,serif" font-size="10.00"> 6.00</text>
</g>
</g>
</svg>
