<?xml version="1.0" encoding="UTF-8" standalone="no"?>
<!DOCTYPE svg PUBLIC "-//W3C//DTD SVG 1.1//EN"
 "http://www.w3.org/Graphics/SVG/1.1/DTD/svg11.dtd">
<!-- Generated by graphviz version 2.43.0 (0)
 -->
<!-- Title: %3 Pages: 1 -->
<svg width="538pt" height="285pt"
 viewBox="0.00 0.00 537.80 284.80" xmlns="http://www.w3.org/2000/svg" xmlns:xlink="http://www.w3.org/1999/xlink">
<g id="graph0" class="graph" transform="scale(1 1) rotate(0) translate(14.4 270.4)">
<title>%3</title>
<polygon fill="#ffffff" stroke="transparent" points="-14.4,14.4 -14.4,-270.4 523.4,-270.4 523.4,14.4 -14.4,14.4"/>
<!-- q -->
<g id="node1" class="node">
<title>q</title>
<path fill="#7289da" stroke="#ffffff" stroke-width="1.1" d="M124,-219.5C124,-219.5 154,-219.5 154,-219.5 160,-219.5 166,-225.5 166,-231.5 166,-231.5 166,-243.5 166,-243.5 166,-249.5 160,-255.5 154,-255.5 154,-255.5 124,-255.5 124,-255.5 118,-255.5 112,-249.5 112,-243.5 112,-243.5 112,-231.5 112,-231.5 112,-225.5 118,-219.5 124,-219.5"/>
<text text-anchor="middle" x="139" y="-233.8" font-family="Times,serif" font-size="14.00" fill="#ffffff">q</text>
</g>
<!-- s -->
<g id="node2" class="node">
<title>s</title>
<path fill="#7289da" stroke="#ffffff" stroke-width="1.1" d="M68,-146.5C68,-146.5 98,-146.5 98,-146.5 104,-146.5 110,-152.5 110,-158.5 110,-158.5 110,-170.5 110,-170.5 110,-176.5 104,-182.5 98,-182.5 98,-182.5 68,-182.5 68,-182.5 62,-182.5 56,-176.5 56,-170.5 56,-170.5 56,-158.5 56,-158.5 56,-152.5 62,-146.5 68,-146.5"/>
<text text-anchor="middle" x="83" y="-160.8" font-family="Times,serif" font-size="14.00" fill="#ffffff">s</text>
</g>
<!-- q&#45;&gt;s -->
<g id="edge1" class="edge">
<title>q&#45;&gt;s</title>
<path fill="none" stroke="black" stroke-width="0.9" d="M125.44,-219.31C118.22,-210.16 109.23,-198.76 101.39,-188.82"/>
<polygon fill="black" stroke="black" stroke-width="0.9" points="103.58,-187.08 96.43,-182.53 99.19,-190.54 103.58,-187.08"/>
</g>
<!-- t -->
<g id="node3" class="node">
<title>t</title>
<path fill="#7289da" stroke="#ffffff" stroke-width="1.1" d="M180,-146.5C180,-146.5 210,-146.5 210,-146.5 216,-146.5 222,-152.5 222,-158.5 222,-158.5 222,-170.5 222,-170.5 222,-176.5 216,-182.5 210,-182.5 210,-182.5 180,-182.5 180,-182.5 174,-182.5 168,-176.5 168,-170.5 168,-170.5 168,-158.5 168,-158.5 168,-152.5 174,-146.5 180,-146.5"/>
<text text-anchor="middle" x="195" y="-160.8" font-family="Times,serif" font-size="14.00" fill="#ffffff">t</text>
</g>
<!-- q&#45;&gt;t -->
<g id="edge2" class="edge">
<title>q&#45;&gt;t</title>
<path fill="none" stroke="black" stroke-width="0.9" d="M152.56,-219.31C159.78,-210.16 168.77,-198.76 176.61,-188.82"/>
<polygon fill="black" stroke="black" stroke-width="0.9" points="178.81,-190.54 181.57,-182.53 174.42,-187.08 178.81,-190.54"/>
</g>
<!-- w -->
<g id="node4" class="node">
<title>w</title>
<path fill="#7289da" stroke="#ffffff" stroke-width="1.1" d="M12,-0.5C12,-0.5 42,-0.5 42,-0.5 48,-0.5 54,-6.5 54,-12.5 54,-12.5 54,-24.5 54,-24.5 54,-30.5 48,-36.5 42,-36.5 42,-36.5 12,-36.5 12,-36.5 6,-36.5 0,-30.5 0,-24.5 0,-24.5 0,-12.5 0,-12.5 0,-6.5 6,-0.5 12,-0.5"/>
<text text-anchor="middle" x="27" y="-14.8" font-family="Times,serif" font-size="14.00" fill="#ffffff">w</text>
</g>
<!-- q&#45;&gt;w -->
<g id="edge3" class="edge">
<title>q&#45;&gt;w</title>
<path fill="none" stroke="black" stroke-width="0.9" d="M111.82,-231.99C85.03,-225.94 45.5,-212.35 27,-183 0.27,-140.61 10.41,-78.93 19.27,-44.73"/>
<polygon fill="black" stroke="black" stroke-width="0.9" points="22.07,-45.11 21.48,-36.65 16.67,-43.63 22.07,-45.11"/>
</g>
<!-- v -->
<g id="node8" class="node">
<title>v</title>
<path fill="#7289da" stroke="#ffffff" stroke-width="1.1" d="M127,-73.5C127,-73.5 157,-73.5 157,-73.5 163,-73.5 169,-79.5 169,-85.5 169,-85.5 169,-97.5 169,-97.5 169,-103.5 163,-109.5 157,-109.5 157,-109.5 127,-109.5 127,-109.5 121,-109.5 115,-103.5 115,-97.5 115,-97.5 115,-85.5 115,-85.5 115,-79.5 121,-73.5 127,-73.5"/>
<text text-anchor="middle" x="142" y="-87.8" font-family="Times,serif" font-size="14.00" fill="#ffffff">v</text>
</g>
<!-- s&#45;&gt;v -->
<g id="edge6" class="edge">
<title>s&#45;&gt;v</title>
<path fill="none" stroke="black" stroke-width="0.9" d="M97.28,-146.31C104.89,-137.16 114.36,-125.76 122.62,-115.82"/>
<polygon fill="black" stroke="black" stroke-width="0.9" points="124.89,-117.47 127.85,-109.53 120.58,-113.89 124.89,-117.47"/>
</g>
<!-- y -->
<g id="node7" class="node">
<title>y</title>
<path fill="#7289da" stroke="#ffffff" stroke-width="1.1" d="M380,-73.5C380,-73.5 410,-73.5 410,-73.5 416,-73.5 422,-79.5 422,-85.5 422,-85.5 422,-97.5 422,-97.5 422,-103.5 416,-109.5 410,-109.5 410,-109.5 380,-109.5 380,-109.5 374,-109.5 368,-103.5 368,-97.5 368,-97.5 368,-85.5 368,-85.5 368,-79.5 374,-73.5 380,-73.5"/>
<text text-anchor="middle" x="395" y="-87.8" font-family="Times,serif" font-size="14.00" fill="#ffffff">y</text>
</g>
<!-- t&#45;&gt;y -->
<g id="edge8" class="edge">
<title>t&#45;&gt;y</title>
<path fill="none" stroke="black" stroke-width="0.9" d="M222.39,-153.78C258.15,-141.08 320.77,-118.85 359.95,-104.94"/>
<polygon fill="black" stroke="black" stroke-width="0.9" points="361.34,-107.42 367.94,-102.11 359.47,-102.14 361.34,-107.42"/>
</g>
<!-- x -->
<g id="node9" class="node">
<title>x</title>
<path fill="#7289da" stroke="#ffffff" stroke-width="1.1" d="M239,-73.5C239,-73.5 269,-73.5 269,-73.5 275,-73.5 281,-79.5 281,-85.5 281,-85.5 281,-97.5 281,-97.5 281,-103.5 275,-109.5 269,-109.5 269,-109.5 239,-109.5 239,-109.5 233,-109.5 227,-103.5 227,-97.5 227,-97.5 227,-85.5 227,-85.5 227,-79.5 233,-73.5 239,-73.5"/>
<text text-anchor="middle" x="254" y="-87.8" font-family="Times,serif" font-size="14.00" fill="#ffffff">x</text>
</g>
<!-- t&#45;&gt;x -->
<g id="edge7" class="edge">
<title>t&#45;&gt;x</title>
<path fill="none" stroke="black" stroke-width="0.9" d="M209.28,-146.31C216.89,-137.16 226.36,-125.76 234.62,-115.82"/>
<polygon fill="black" stroke="black" stroke-width="0.9" points="236.89,-117.47 239.85,-109.53 232.58,-113.89 236.89,-117.47"/>
</g>
<!-- w&#45;&gt;s -->
<g id="edge11" class="edge">
<title>w&#45;&gt;s</title>
<path fill="none" stroke="black" stroke-width="0.9" d="M33.64,-36.56C43.48,-61.88 62.02,-109.54 73.36,-138.71"/>
<polygon fill="black" stroke="black" stroke-width="0.9" points="70.85,-139.97 76.36,-146.42 76.07,-137.94 70.85,-139.97"/>
</g>
<!-- r -->
<g id="node5" class="node">
<title>r</title>
<path fill="#7289da" stroke="#ffffff" stroke-width="1.1" d="M467,-219.5C467,-219.5 497,-219.5 497,-219.5 503,-219.5 509,-225.5 509,-231.5 509,-231.5 509,-243.5 509,-243.5 509,-249.5 503,-255.5 497,-255.5 497,-255.5 467,-255.5 467,-255.5 461,-255.5 455,-249.5 455,-243.5 455,-243.5 455,-231.5 455,-231.5 455,-225.5 461,-219.5 467,-219.5"/>
<text text-anchor="middle" x="482" y="-233.8" font-family="Times,serif" font-size="14.00" fill="#ffffff">r</text>
</g>
<!-- u -->
<g id="node6" class="node">
<title>u</title>
<path fill="#7289da" stroke="#ffffff" stroke-width="1.1" d="M410,-146.5C410,-146.5 440,-146.5 440,-146.5 446,-146.5 452,-152.5 452,-158.5 452,-158.5 452,-170.5 452,-170.5 452,-176.5 446,-182.5 440,-182.5 440,-182.5 410,-182.5 410,-182.5 404,-182.5 398,-176.5 398,-170.5 398,-170.5 398,-158.5 398,-158.5 398,-152.5 404,-146.5 410,-146.5"/>
<text text-anchor="middle" x="425" y="-160.8" font-family="Times,serif" font-size="14.00" fill="#ffffff">u</text>
</g>
<!-- r&#45;&gt;u -->
<g id="edge4" class="edge">
<title>r&#45;&gt;u</title>
<path fill="none" stroke="black" stroke-width="0.9" d="M468.2,-219.31C460.85,-210.16 451.7,-198.76 443.72,-188.82"/>
<polygon fill="black" stroke="black" stroke-width="0.9" points="445.86,-187.01 438.67,-182.53 441.5,-190.52 445.86,-187.01"/>
</g>
<!-- r&#45;&gt;y -->
<g id="edge5" class="edge">
<title>r&#45;&gt;y</title>
<path fill="none" stroke="black" stroke-width="0.9" d="M486.46,-219.24C490.42,-200.03 493.79,-168.73 481,-146 469.98,-126.42 448.54,-113.06 429.83,-104.59"/>
<polygon fill="black" stroke="black" stroke-width="0.9" points="430.47,-101.82 422.01,-101.25 428.27,-106.97 430.47,-101.82"/>
</g>
<!-- u&#45;&gt;y -->
<g id="edge9" class="edge">
<title>u&#45;&gt;y</title>
<path fill="none" stroke="black" stroke-width="0.9" d="M417.74,-146.31C414.02,-137.5 409.42,-126.63 405.33,-116.96"/>
<polygon fill="black" stroke="black" stroke-width="0.9" points="407.89,-115.81 402.2,-109.53 402.73,-117.99 407.89,-115.81"/>
</g>
<!-- y&#45;&gt;q -->
<g id="edge13" class="edge">
<title>y&#45;&gt;q</title>
<path fill="none" stroke="black" stroke-width="0.9" d="M369.78,-109.6C341.45,-128.51 293.81,-159.43 251,-183 225.56,-197.01 195.87,-211.09 173.45,-221.29"/>
<polygon fill="black" stroke="black" stroke-width="0.9" points="172.28,-218.75 166.14,-224.6 174.58,-223.85 172.28,-218.75"/>
</g>
<!-- v&#45;&gt;w -->
<g id="edge10" class="edge">
<title>v&#45;&gt;w</title>
<path fill="none" stroke="black" stroke-width="0.9" d="M114.75,-73.67C98.71,-63.77 78.28,-51.16 61.17,-40.59"/>
<polygon fill="black" stroke="black" stroke-width="0.9" points="62.34,-38.03 54.06,-36.21 59.39,-42.79 62.34,-38.03"/>
</g>
<!-- z -->
<g id="node10" class="node">
<title>z</title>
<path fill="#7289da" stroke="#ffffff" stroke-width="1.1" d="M239,-0.5C239,-0.5 269,-0.5 269,-0.5 275,-0.5 281,-6.5 281,-12.5 281,-12.5 281,-24.5 281,-24.5 281,-30.5 275,-36.5 269,-36.5 269,-36.5 239,-36.5 239,-36.5 233,-36.5 227,-30.5 227,-24.5 227,-24.5 227,-12.5 227,-12.5 227,-6.5 233,-0.5 239,-0.5"/>
<text text-anchor="middle" x="254" y="-14.8" font-family="Times,serif" font-size="14.00" fill="#ffffff">z</text>
</g>
<!-- x&#45;&gt;z -->
<g id="edge12" class="edge">
<title>x&#45;&gt;z</title>
<path fill="none" stroke="black" stroke-width="0.9" d="M235.06,-73.31C232.15,-64.68 231.5,-54.06 233.11,-44.53"/>
<polygon fill="black" stroke="black" stroke-width="0.9" points="235.89,-44.97 235.11,-36.53 230.46,-43.61 235.89,-44.97"/>
</g>
<!-- z&#45;&gt;x -->
<g id="edge14" class="edge">
<title>z&#45;&gt;x</title>
<path fill="none" stroke="black" stroke-width="0.9" d="M272.89,-36.53C275.83,-45.14 276.5,-55.76 274.92,-65.29"/>
<polygon fill="black" stroke="black" stroke-width="0.9" points="272.14,-64.88 272.94,-73.31 277.57,-66.21 272.14,-64.88"/>
</g>
</g>
</svg>
